<?xml version="1.0" encoding="utf-8" standalone="no"?>
<!DOCTYPE svg PUBLIC "-//W3C//DTD SVG 1.1//EN"
  "http://www.w3.org/Graphics/SVG/1.1/DTD/svg11.dtd">
<!-- Created with matplotlib (https://matplotlib.org/) -->
<svg height="432pt" version="1.1" viewBox="0 0 864 432" width="864pt" xmlns="http://www.w3.org/2000/svg" xmlns:xlink="http://www.w3.org/1999/xlink">
 <defs>
  <style type="text/css">
*{stroke-linecap:butt;stroke-linejoin:round;white-space:pre;}
  </style>
 </defs>
 <g id="figure_1">
  <g id="patch_1">
   <path d="M 0 432 
L 864 432 
L 864 0 
L 0 0 
z
" style="fill:#ffffff;"/>
  </g>
  <g id="axes_1">
   <g id="patch_2">
    <path d="M 108 378 
L 777.6 378 
L 777.6 51.84 
L 108 51.84 
z
" style="fill:#eaeaf2;"/>
   </g>
   <g id="matplotlib.axis_1">
    <g id="xtick_1">
     <g id="line2d_1">
      <path clip-path="url(#pbaabe3d3f0)" d="M 174.436364 378 
L 174.436364 51.84 
" style="fill:none;stroke:#ffffff;stroke-linecap:round;"/>
     </g>
     <g id="line2d_2"/>
     <g id="text_1">
      <!-- 500 -->
      <defs>
       <path d="M 51.421875 22.40625 
Q 51.421875 17.234375 49.859375 12.9375 
Q 48.296875 8.640625 45.21875 5.53125 
Q 42.140625 2.4375 37.578125 0.71875 
Q 33.015625 -0.984375 27 -0.984375 
Q 21.578125 -0.984375 17.546875 0.28125 
Q 13.53125 1.5625 10.734375 3.78125 
Q 7.953125 6 6.3125 8.984375 
Q 4.6875 11.96875 4 15.375 
L 12.890625 16.40625 
Q 13.421875 14.453125 14.390625 12.625 
Q 15.375 10.796875 17.0625 9.34375 
Q 18.75 7.90625 21.21875 7.046875 
Q 23.6875 6.203125 27.203125 6.203125 
Q 30.609375 6.203125 33.390625 7.25 
Q 36.1875 8.296875 38.15625 10.34375 
Q 40.140625 12.40625 41.203125 15.375 
Q 42.28125 18.359375 42.28125 22.21875 
Q 42.28125 25.390625 41.25 28.046875 
Q 40.234375 30.71875 38.328125 32.640625 
Q 36.421875 34.578125 33.65625 35.640625 
Q 30.90625 36.71875 27.390625 36.71875 
Q 25.203125 36.71875 23.34375 36.328125 
Q 21.484375 35.9375 19.890625 35.25 
Q 18.3125 34.578125 17.015625 33.671875 
Q 15.71875 32.765625 14.59375 31.78125 
L 6 31.78125 
L 8.296875 68.796875 
L 47.40625 68.796875 
L 47.40625 61.328125 
L 16.3125 61.328125 
L 14.984375 39.5 
Q 17.328125 41.3125 20.84375 42.59375 
Q 24.359375 43.890625 29.203125 43.890625 
Q 34.328125 43.890625 38.421875 42.328125 
Q 42.53125 40.765625 45.40625 37.90625 
Q 48.296875 35.0625 49.859375 31.109375 
Q 51.421875 27.15625 51.421875 22.40625 
z
" id="LiberationSans-53"/>
       <path d="M 51.703125 34.421875 
Q 51.703125 24.515625 49.828125 17.75 
Q 47.953125 10.984375 44.703125 6.8125 
Q 41.453125 2.640625 37.0625 0.828125 
Q 32.671875 -0.984375 27.6875 -0.984375 
Q 22.65625 -0.984375 18.3125 0.828125 
Q 13.96875 2.640625 10.765625 6.78125 
Q 7.5625 10.9375 5.734375 17.703125 
Q 3.90625 24.46875 3.90625 34.421875 
Q 3.90625 44.828125 5.734375 51.640625 
Q 7.5625 58.453125 10.78125 62.5 
Q 14.015625 66.546875 18.40625 68.1875 
Q 22.796875 69.828125 27.984375 69.828125 
Q 32.90625 69.828125 37.21875 68.1875 
Q 41.546875 66.546875 44.765625 62.5 
Q 48 58.453125 49.84375 51.640625 
Q 51.703125 44.828125 51.703125 34.421875 
z
M 42.78125 34.421875 
Q 42.78125 42.625 41.796875 48.0625 
Q 40.828125 53.515625 38.921875 56.765625 
Q 37.015625 60.015625 34.25 61.359375 
Q 31.5 62.703125 27.984375 62.703125 
Q 24.265625 62.703125 21.4375 61.328125 
Q 18.609375 59.96875 16.671875 56.71875 
Q 14.75 53.46875 13.765625 48.015625 
Q 12.796875 42.578125 12.796875 34.421875 
Q 12.796875 26.515625 13.796875 21.09375 
Q 14.796875 15.671875 16.71875 12.375 
Q 18.65625 9.078125 21.4375 7.640625 
Q 24.21875 6.203125 27.78125 6.203125 
Q 31.25 6.203125 34.03125 7.640625 
Q 36.8125 9.078125 38.734375 12.375 
Q 40.671875 15.671875 41.71875 21.09375 
Q 42.78125 26.515625 42.78125 34.421875 
z
" id="LiberationSans-48"/>
      </defs>
      <g style="fill:#262626;" transform="translate(166.094957 392.246875)scale(0.1 -0.1)">
       <use xlink:href="#LiberationSans-53"/>
       <use x="55.615234" xlink:href="#LiberationSans-48"/>
       <use x="111.230469" xlink:href="#LiberationSans-48"/>
      </g>
     </g>
    </g>
    <g id="xtick_2">
     <g id="line2d_3">
      <path clip-path="url(#pbaabe3d3f0)" d="M 256.254545 378 
L 256.254545 51.84 
" style="fill:none;stroke:#ffffff;stroke-linecap:round;"/>
     </g>
     <g id="line2d_4"/>
     <g id="text_2">
      <!-- 1000 -->
      <defs>
       <path d="M 7.625 0 
L 7.625 7.46875 
L 25.140625 7.46875 
L 25.140625 60.40625 
L 9.625 49.3125 
L 9.625 57.625 
L 25.875 68.796875 
L 33.984375 68.796875 
L 33.984375 7.46875 
L 50.734375 7.46875 
L 50.734375 0 
z
" id="LiberationSans-49"/>
      </defs>
      <g style="fill:#262626;" transform="translate(245.13267 392.246875)scale(0.1 -0.1)">
       <use xlink:href="#LiberationSans-49"/>
       <use x="55.615234" xlink:href="#LiberationSans-48"/>
       <use x="111.230469" xlink:href="#LiberationSans-48"/>
       <use x="166.845703" xlink:href="#LiberationSans-48"/>
      </g>
     </g>
    </g>
    <g id="xtick_3">
     <g id="line2d_5">
      <path clip-path="url(#pbaabe3d3f0)" d="M 338.072727 378 
L 338.072727 51.84 
" style="fill:none;stroke:#ffffff;stroke-linecap:round;"/>
     </g>
     <g id="line2d_6"/>
     <g id="text_3">
      <!-- 1500 -->
      <g style="fill:#262626;" transform="translate(326.950852 392.246875)scale(0.1 -0.1)">
       <use xlink:href="#LiberationSans-49"/>
       <use x="55.615234" xlink:href="#LiberationSans-53"/>
       <use x="111.230469" xlink:href="#LiberationSans-48"/>
       <use x="166.845703" xlink:href="#LiberationSans-48"/>
      </g>
     </g>
    </g>
    <g id="xtick_4">
     <g id="line2d_7">
      <path clip-path="url(#pbaabe3d3f0)" d="M 419.890909 378 
L 419.890909 51.84 
" style="fill:none;stroke:#ffffff;stroke-linecap:round;"/>
     </g>
     <g id="line2d_8"/>
     <g id="text_4">
      <!-- 2000 -->
      <defs>
       <path d="M 5.03125 0 
L 5.03125 6.203125 
Q 7.515625 11.921875 11.109375 16.28125 
Q 14.703125 20.65625 18.65625 24.1875 
Q 22.609375 27.734375 26.484375 30.765625 
Q 30.375 33.796875 33.5 36.8125 
Q 36.625 39.84375 38.546875 43.15625 
Q 40.484375 46.484375 40.484375 50.6875 
Q 40.484375 53.609375 39.59375 55.828125 
Q 38.71875 58.0625 37.0625 59.5625 
Q 35.40625 61.078125 33.078125 61.828125 
Q 30.765625 62.59375 27.9375 62.59375 
Q 25.296875 62.59375 22.96875 61.859375 
Q 20.65625 61.140625 18.84375 59.671875 
Q 17.046875 58.203125 15.890625 56.03125 
Q 14.75 53.859375 14.40625 50.984375 
L 5.421875 51.8125 
Q 5.859375 55.515625 7.46875 58.78125 
Q 9.078125 62.0625 11.90625 64.53125 
Q 14.75 67 18.71875 68.40625 
Q 22.703125 69.828125 27.9375 69.828125 
Q 33.0625 69.828125 37.0625 68.609375 
Q 41.0625 67.390625 43.8125 64.984375 
Q 46.578125 62.59375 48.046875 59.078125 
Q 49.515625 55.5625 49.515625 50.984375 
Q 49.515625 47.515625 48.265625 44.390625 
Q 47.015625 41.265625 44.9375 38.421875 
Q 42.875 35.59375 40.140625 32.953125 
Q 37.40625 30.328125 34.421875 27.8125 
Q 31.453125 25.296875 28.421875 22.828125 
Q 25.390625 20.359375 22.71875 17.859375 
Q 20.0625 15.375 17.96875 12.8125 
Q 15.875 10.25 14.703125 7.46875 
L 50.59375 7.46875 
L 50.59375 0 
z
" id="LiberationSans-50"/>
      </defs>
      <g style="fill:#262626;" transform="translate(408.769034 392.246875)scale(0.1 -0.1)">
       <use xlink:href="#LiberationSans-50"/>
       <use x="55.615234" xlink:href="#LiberationSans-48"/>
       <use x="111.230469" xlink:href="#LiberationSans-48"/>
       <use x="166.845703" xlink:href="#LiberationSans-48"/>
      </g>
     </g>
    </g>
    <g id="xtick_5">
     <g id="line2d_9">
      <path clip-path="url(#pbaabe3d3f0)" d="M 501.709091 378 
L 501.709091 51.84 
" style="fill:none;stroke:#ffffff;stroke-linecap:round;"/>
     </g>
     <g id="line2d_10"/>
     <g id="text_5">
      <!-- 2500 -->
      <g style="fill:#262626;" transform="translate(490.587216 392.246875)scale(0.1 -0.1)">
       <use xlink:href="#LiberationSans-50"/>
       <use x="55.615234" xlink:href="#LiberationSans-53"/>
       <use x="111.230469" xlink:href="#LiberationSans-48"/>
       <use x="166.845703" xlink:href="#LiberationSans-48"/>
      </g>
     </g>
    </g>
    <g id="xtick_6">
     <g id="line2d_11">
      <path clip-path="url(#pbaabe3d3f0)" d="M 583.527273 378 
L 583.527273 51.84 
" style="fill:none;stroke:#ffffff;stroke-linecap:round;"/>
     </g>
     <g id="line2d_12"/>
     <g id="text_6">
      <!-- 3000 -->
      <defs>
       <path d="M 51.21875 19 
Q 51.21875 14.265625 49.671875 10.546875 
Q 48.140625 6.84375 45.1875 4.265625 
Q 42.234375 1.703125 37.859375 0.359375 
Q 33.5 -0.984375 27.875 -0.984375 
Q 21.484375 -0.984375 17.109375 0.609375 
Q 12.75 2.203125 9.90625 4.8125 
Q 7.078125 7.421875 5.65625 10.765625 
Q 4.25 14.109375 3.8125 17.671875 
L 12.890625 18.5 
Q 13.28125 15.765625 14.328125 13.515625 
Q 15.375 11.28125 17.1875 9.671875 
Q 19 8.0625 21.625 7.171875 
Q 24.265625 6.296875 27.875 6.296875 
Q 34.515625 6.296875 38.296875 9.5625 
Q 42.09375 12.84375 42.09375 19.28125 
Q 42.09375 23.09375 40.40625 25.40625 
Q 38.71875 27.734375 36.203125 29.03125 
Q 33.6875 30.328125 30.734375 30.765625 
Q 27.78125 31.203125 25.296875 31.203125 
L 20.3125 31.203125 
L 20.3125 38.8125 
L 25.09375 38.8125 
Q 27.59375 38.8125 30.265625 39.328125 
Q 32.953125 39.84375 35.171875 41.1875 
Q 37.40625 42.53125 38.84375 44.828125 
Q 40.28125 47.125 40.28125 50.6875 
Q 40.28125 56.203125 37.03125 59.390625 
Q 33.796875 62.59375 27.390625 62.59375 
Q 21.578125 62.59375 17.984375 59.609375 
Q 14.40625 56.640625 13.8125 51.21875 
L 4.984375 51.90625 
Q 5.515625 56.453125 7.46875 59.8125 
Q 9.421875 63.1875 12.421875 65.40625 
Q 15.4375 67.625 19.28125 68.71875 
Q 23.140625 69.828125 27.484375 69.828125 
Q 33.25 69.828125 37.390625 68.375 
Q 41.546875 66.9375 44.1875 64.46875 
Q 46.828125 62.015625 48.0625 58.6875 
Q 49.3125 55.375 49.3125 51.609375 
Q 49.3125 48.578125 48.484375 45.9375 
Q 47.65625 43.3125 45.890625 41.203125 
Q 44.140625 39.109375 41.421875 37.59375 
Q 38.71875 36.078125 34.90625 35.296875 
L 34.90625 35.109375 
Q 39.0625 34.671875 42.140625 33.21875 
Q 45.21875 31.78125 47.21875 29.625 
Q 49.21875 27.484375 50.21875 24.75 
Q 51.21875 22.015625 51.21875 19 
z
" id="LiberationSans-51"/>
      </defs>
      <g style="fill:#262626;" transform="translate(572.405398 392.246875)scale(0.1 -0.1)">
       <use xlink:href="#LiberationSans-51"/>
       <use x="55.615234" xlink:href="#LiberationSans-48"/>
       <use x="111.230469" xlink:href="#LiberationSans-48"/>
       <use x="166.845703" xlink:href="#LiberationSans-48"/>
      </g>
     </g>
    </g>
    <g id="xtick_7">
     <g id="line2d_13">
      <path clip-path="url(#pbaabe3d3f0)" d="M 665.345455 378 
L 665.345455 51.84 
" style="fill:none;stroke:#ffffff;stroke-linecap:round;"/>
     </g>
     <g id="line2d_14"/>
     <g id="text_7">
      <!-- 3500 -->
      <g style="fill:#262626;" transform="translate(654.22358 392.246875)scale(0.1 -0.1)">
       <use xlink:href="#LiberationSans-51"/>
       <use x="55.615234" xlink:href="#LiberationSans-53"/>
       <use x="111.230469" xlink:href="#LiberationSans-48"/>
       <use x="166.845703" xlink:href="#LiberationSans-48"/>
      </g>
     </g>
    </g>
    <g id="xtick_8">
     <g id="line2d_15">
      <path clip-path="url(#pbaabe3d3f0)" d="M 747.163636 378 
L 747.163636 51.84 
" style="fill:none;stroke:#ffffff;stroke-linecap:round;"/>
     </g>
     <g id="line2d_16"/>
     <g id="text_8">
      <!-- 4000 -->
      <defs>
       <path d="M 43.015625 15.578125 
L 43.015625 0 
L 34.71875 0 
L 34.71875 15.578125 
L 2.296875 15.578125 
L 2.296875 22.40625 
L 33.796875 68.796875 
L 43.015625 68.796875 
L 43.015625 22.515625 
L 52.6875 22.515625 
L 52.6875 15.578125 
z
M 34.71875 58.890625 
Q 34.625 58.640625 34.234375 57.9375 
Q 33.84375 57.234375 33.34375 56.34375 
Q 32.859375 55.46875 32.34375 54.5625 
Q 31.84375 53.65625 31.453125 53.078125 
L 13.8125 27.09375 
Q 13.578125 26.703125 13.109375 26.0625 
Q 12.640625 25.4375 12.15625 24.78125 
Q 11.671875 24.125 11.171875 23.484375 
Q 10.6875 22.859375 10.40625 22.515625 
L 34.71875 22.515625 
z
" id="LiberationSans-52"/>
      </defs>
      <g style="fill:#262626;" transform="translate(736.041761 392.246875)scale(0.1 -0.1)">
       <use xlink:href="#LiberationSans-52"/>
       <use x="55.615234" xlink:href="#LiberationSans-48"/>
       <use x="111.230469" xlink:href="#LiberationSans-48"/>
       <use x="166.845703" xlink:href="#LiberationSans-48"/>
      </g>
     </g>
    </g>
    <g id="text_9">
     <!-- $\lambda$ (nm) -->
     <defs>
      <path d="M 36.71875 67.4375 
L 48.828125 0 
L 39.3125 0 
L 31.84375 40.4375 
L 5.125 0 
L -4.390625 0 
L 29.734375 52.4375 
L 28.03125 62.109375 
Q 26.953125 68.265625 21.734375 68.265625 
L 17.046875 68.265625 
L 18.5 75.984375 
L 24.21875 75.875 
Q 35.203125 75.734375 36.71875 67.4375 
z
" id="DejaVuSans-Oblique-955"/>
      <path id="LiberationSans-32"/>
      <path d="M 6.203125 25.984375 
Q 6.203125 32.765625 7.21875 38.96875 
Q 8.25 45.171875 10.4375 50.875 
Q 12.640625 56.59375 16.0625 61.953125 
Q 19.484375 67.328125 24.21875 72.46875 
L 32.71875 72.46875 
Q 28.125 67.328125 24.78125 61.9375 
Q 21.4375 56.546875 19.28125 50.796875 
Q 17.140625 45.0625 16.09375 38.859375 
Q 15.046875 32.671875 15.046875 25.875 
Q 15.046875 19.09375 16.09375 12.890625 
Q 17.140625 6.6875 19.28125 0.921875 
Q 21.4375 -4.828125 24.78125 -10.203125 
Q 28.125 -15.578125 32.71875 -20.703125 
L 24.21875 -20.703125 
Q 19.484375 -15.578125 16.0625 -10.203125 
Q 12.640625 -4.828125 10.4375 0.875 
Q 8.25 6.59375 7.21875 12.765625 
Q 6.203125 18.953125 6.203125 25.78125 
z
" id="LiberationSans-40"/>
      <path d="M 40.28125 0 
L 40.28125 33.5 
Q 40.28125 37.359375 39.71875 39.9375 
Q 39.15625 42.53125 37.890625 44.109375 
Q 36.625 45.703125 34.546875 46.359375 
Q 32.46875 47.015625 29.390625 47.015625 
Q 26.265625 47.015625 23.75 45.921875 
Q 21.234375 44.828125 19.453125 42.75 
Q 17.671875 40.671875 16.6875 37.625 
Q 15.71875 34.578125 15.71875 30.609375 
L 15.71875 0 
L 6.9375 0 
L 6.9375 41.546875 
Q 6.9375 43.21875 6.90625 45.046875 
Q 6.890625 46.875 6.828125 48.5 
Q 6.78125 50.140625 6.734375 51.3125 
Q 6.6875 52.484375 6.640625 52.828125 
L 14.9375 52.828125 
Q 14.984375 52.59375 15.03125 51.515625 
Q 15.09375 50.4375 15.15625 49.046875 
Q 15.234375 47.65625 15.28125 46.21875 
Q 15.328125 44.78125 15.328125 43.796875 
L 15.484375 43.796875 
Q 16.75 46.09375 18.265625 47.953125 
Q 19.78125 49.8125 21.78125 51.09375 
Q 23.78125 52.390625 26.359375 53.09375 
Q 28.953125 53.8125 32.375 53.8125 
Q 36.765625 53.8125 39.9375 52.734375 
Q 43.109375 51.65625 45.15625 49.40625 
Q 47.21875 47.171875 48.171875 43.625 
Q 49.125 40.09375 49.125 35.203125 
L 49.125 0 
z
" id="LiberationSans-110"/>
      <path d="M 37.5 0 
L 37.5 33.5 
Q 37.5 37.359375 37.015625 39.9375 
Q 36.53125 42.53125 35.375 44.109375 
Q 34.234375 45.703125 32.375 46.359375 
Q 30.515625 47.015625 27.828125 47.015625 
Q 25.046875 47.015625 22.796875 45.921875 
Q 20.5625 44.828125 18.96875 42.75 
Q 17.390625 40.671875 16.53125 37.625 
Q 15.671875 34.578125 15.671875 30.609375 
L 15.671875 0 
L 6.9375 0 
L 6.9375 41.546875 
Q 6.9375 43.21875 6.90625 45.046875 
Q 6.890625 46.875 6.828125 48.5 
Q 6.78125 50.140625 6.734375 51.3125 
Q 6.6875 52.484375 6.640625 52.828125 
L 14.9375 52.828125 
Q 14.984375 52.59375 15.03125 51.515625 
Q 15.09375 50.4375 15.15625 49.046875 
Q 15.234375 47.65625 15.28125 46.21875 
Q 15.328125 44.78125 15.328125 43.796875 
L 15.484375 43.796875 
Q 16.65625 46.09375 18.015625 47.953125 
Q 19.390625 49.8125 21.21875 51.09375 
Q 23.046875 52.390625 25.40625 53.09375 
Q 27.78125 53.8125 30.90625 53.8125 
Q 36.921875 53.8125 40.40625 51.421875 
Q 43.890625 49.03125 45.265625 43.796875 
L 45.40625 43.796875 
Q 46.578125 46.09375 48.046875 47.953125 
Q 49.515625 49.8125 51.46875 51.09375 
Q 53.421875 52.390625 55.859375 53.09375 
Q 58.296875 53.8125 61.421875 53.8125 
Q 65.4375 53.8125 68.328125 52.734375 
Q 71.234375 51.65625 73.09375 49.40625 
Q 74.953125 47.171875 75.828125 43.625 
Q 76.703125 40.09375 76.703125 35.203125 
L 76.703125 0 
L 68.015625 0 
L 68.015625 33.5 
Q 68.015625 37.359375 67.53125 39.9375 
Q 67.046875 42.53125 65.890625 44.109375 
Q 64.75 45.703125 62.890625 46.359375 
Q 61.03125 47.015625 58.34375 47.015625 
Q 55.5625 47.015625 53.3125 45.96875 
Q 51.078125 44.921875 49.484375 42.875 
Q 47.90625 40.828125 47.046875 37.75 
Q 46.1875 34.671875 46.1875 30.609375 
L 46.1875 0 
z
" id="LiberationSans-109"/>
      <path d="M 27.09375 25.78125 
Q 27.09375 18.953125 26.0625 12.765625 
Q 25.046875 6.59375 22.84375 0.875 
Q 20.65625 -4.828125 17.234375 -10.203125 
Q 13.8125 -15.578125 9.078125 -20.703125 
L 0.59375 -20.703125 
Q 5.171875 -15.578125 8.515625 -10.203125 
Q 11.859375 -4.828125 14 0.921875 
Q 16.15625 6.6875 17.203125 12.890625 
Q 18.265625 19.09375 18.265625 25.875 
Q 18.265625 32.671875 17.203125 38.859375 
Q 16.15625 45.0625 14 50.796875 
Q 11.859375 56.546875 8.515625 61.9375 
Q 5.171875 67.328125 0.59375 72.46875 
L 9.078125 72.46875 
Q 13.8125 67.328125 17.234375 61.953125 
Q 20.65625 56.59375 22.84375 50.875 
Q 25.046875 45.171875 26.0625 38.96875 
Q 27.09375 32.765625 27.09375 25.984375 
z
" id="LiberationSans-41"/>
     </defs>
     <g style="fill:#262626;" transform="translate(426.685 406.681875)scale(0.11 -0.11)">
      <use transform="translate(0 0.015625)" xlink:href="#DejaVuSans-Oblique-955"/>
      <use transform="translate(59.179688 0.015625)" xlink:href="#LiberationSans-32"/>
      <use transform="translate(86.962891 0.015625)" xlink:href="#LiberationSans-40"/>
      <use transform="translate(120.263672 0.015625)" xlink:href="#LiberationSans-110"/>
      <use transform="translate(175.878906 0.015625)" xlink:href="#LiberationSans-109"/>
      <use transform="translate(259.179688 0.015625)" xlink:href="#LiberationSans-41"/>
     </g>
    </g>
   </g>
   <g id="matplotlib.axis_2">
    <g id="ytick_1">
     <g id="line2d_17">
      <path clip-path="url(#pbaabe3d3f0)" d="M 108 363.174545 
L 777.6 363.174545 
" style="fill:none;stroke:#ffffff;stroke-linecap:round;"/>
     </g>
     <g id="line2d_18"/>
     <g id="text_10">
      <!-- 0.0 -->
      <defs>
       <path d="M 9.125 0 
L 9.125 10.6875 
L 18.65625 10.6875 
L 18.65625 0 
z
" id="LiberationSans-46"/>
      </defs>
      <g style="fill:#262626;" transform="translate(87.1 366.797983)scale(0.1 -0.1)">
       <use xlink:href="#LiberationSans-48"/>
       <use x="55.615234" xlink:href="#LiberationSans-46"/>
       <use x="83.398438" xlink:href="#LiberationSans-48"/>
      </g>
     </g>
    </g>
    <g id="ytick_2">
     <g id="line2d_19">
      <path clip-path="url(#pbaabe3d3f0)" d="M 108 321.843476 
L 777.6 321.843476 
" style="fill:none;stroke:#ffffff;stroke-linecap:round;"/>
     </g>
     <g id="line2d_20"/>
     <g id="text_11">
      <!-- 0.2 -->
      <g style="fill:#262626;" transform="translate(87.1 325.466914)scale(0.1 -0.1)">
       <use xlink:href="#LiberationSans-48"/>
       <use x="55.615234" xlink:href="#LiberationSans-46"/>
       <use x="83.398438" xlink:href="#LiberationSans-50"/>
      </g>
     </g>
    </g>
    <g id="ytick_3">
     <g id="line2d_21">
      <path clip-path="url(#pbaabe3d3f0)" d="M 108 280.512407 
L 777.6 280.512407 
" style="fill:none;stroke:#ffffff;stroke-linecap:round;"/>
     </g>
     <g id="line2d_22"/>
     <g id="text_12">
      <!-- 0.4 -->
      <g style="fill:#262626;" transform="translate(87.1 284.135844)scale(0.1 -0.1)">
       <use xlink:href="#LiberationSans-48"/>
       <use x="55.615234" xlink:href="#LiberationSans-46"/>
       <use x="83.398438" xlink:href="#LiberationSans-52"/>
      </g>
     </g>
    </g>
    <g id="ytick_4">
     <g id="line2d_23">
      <path clip-path="url(#pbaabe3d3f0)" d="M 108 239.181338 
L 777.6 239.181338 
" style="fill:none;stroke:#ffffff;stroke-linecap:round;"/>
     </g>
     <g id="line2d_24"/>
     <g id="text_13">
      <!-- 0.6 -->
      <defs>
       <path d="M 51.21875 22.515625 
Q 51.21875 17.328125 49.78125 13 
Q 48.34375 8.6875 45.53125 5.578125 
Q 42.71875 2.484375 38.5625 0.75 
Q 34.421875 -0.984375 29 -0.984375 
Q 23 -0.984375 18.5 1.3125 
Q 14.015625 3.609375 11.03125 7.921875 
Q 8.0625 12.25 6.5625 18.53125 
Q 5.078125 24.8125 5.078125 32.8125 
Q 5.078125 42 6.765625 48.921875 
Q 8.453125 55.859375 11.625 60.5 
Q 14.796875 65.140625 19.359375 67.484375 
Q 23.921875 69.828125 29.6875 69.828125 
Q 33.203125 69.828125 36.28125 69.09375 
Q 39.359375 68.359375 41.875 66.71875 
Q 44.390625 65.09375 46.28125 62.40625 
Q 48.1875 59.71875 49.3125 55.8125 
L 40.921875 54.296875 
Q 39.546875 58.734375 36.546875 60.71875 
Q 33.546875 62.703125 29.59375 62.703125 
Q 25.984375 62.703125 23.046875 60.984375 
Q 20.125 59.28125 18.0625 55.875 
Q 16.015625 52.484375 14.90625 47.359375 
Q 13.8125 42.234375 13.8125 35.40625 
Q 16.21875 39.84375 20.5625 42.15625 
Q 24.90625 44.484375 30.515625 44.484375 
Q 35.203125 44.484375 39.015625 42.96875 
Q 42.828125 41.453125 45.53125 38.59375 
Q 48.25 35.75 49.734375 31.671875 
Q 51.21875 27.59375 51.21875 22.515625 
z
M 42.28125 22.125 
Q 42.28125 25.6875 41.40625 28.5625 
Q 40.53125 31.453125 38.765625 33.46875 
Q 37.015625 35.5 34.421875 36.59375 
Q 31.84375 37.703125 28.421875 37.703125 
Q 26.03125 37.703125 23.578125 36.984375 
Q 21.140625 36.28125 19.15625 34.6875 
Q 17.1875 33.109375 15.9375 30.515625 
Q 14.703125 27.9375 14.703125 24.21875 
Q 14.703125 20.40625 15.671875 17.109375 
Q 16.65625 13.8125 18.484375 11.375 
Q 20.3125 8.9375 22.890625 7.515625 
Q 25.484375 6.109375 28.71875 6.109375 
Q 31.890625 6.109375 34.40625 7.203125 
Q 36.921875 8.296875 38.671875 10.375 
Q 40.4375 12.453125 41.359375 15.421875 
Q 42.28125 18.40625 42.28125 22.125 
z
" id="LiberationSans-54"/>
      </defs>
      <g style="fill:#262626;" transform="translate(87.1 242.804775)scale(0.1 -0.1)">
       <use xlink:href="#LiberationSans-48"/>
       <use x="55.615234" xlink:href="#LiberationSans-46"/>
       <use x="83.398438" xlink:href="#LiberationSans-54"/>
      </g>
     </g>
    </g>
    <g id="ytick_5">
     <g id="line2d_25">
      <path clip-path="url(#pbaabe3d3f0)" d="M 108 197.850268 
L 777.6 197.850268 
" style="fill:none;stroke:#ffffff;stroke-linecap:round;"/>
     </g>
     <g id="line2d_26"/>
     <g id="text_14">
      <!-- 0.8 -->
      <defs>
       <path d="M 51.265625 19.1875 
Q 51.265625 14.796875 49.875 11.109375 
Q 48.484375 7.421875 45.625 4.734375 
Q 42.78125 2.046875 38.328125 0.53125 
Q 33.890625 -0.984375 27.828125 -0.984375 
Q 21.78125 -0.984375 17.359375 0.53125 
Q 12.9375 2.046875 10.03125 4.703125 
Q 7.125 7.375 5.734375 11.0625 
Q 4.34375 14.75 4.34375 19.09375 
Q 4.34375 22.859375 5.484375 25.78125 
Q 6.640625 28.71875 8.5625 30.828125 
Q 10.5 32.953125 12.96875 34.25 
Q 15.4375 35.546875 18.0625 35.984375 
L 18.0625 36.1875 
Q 15.1875 36.859375 12.90625 38.375 
Q 10.640625 39.890625 9.09375 42.015625 
Q 7.5625 44.140625 6.75 46.71875 
Q 5.953125 49.3125 5.953125 52.203125 
Q 5.953125 55.8125 7.34375 59 
Q 8.734375 62.203125 11.46875 64.625 
Q 14.203125 67.046875 18.25 68.4375 
Q 22.3125 69.828125 27.640625 69.828125 
Q 33.25 69.828125 37.375 68.40625 
Q 41.5 67 44.203125 64.578125 
Q 46.921875 62.15625 48.234375 58.9375 
Q 49.5625 55.71875 49.5625 52.09375 
Q 49.5625 49.265625 48.75 46.671875 
Q 47.953125 44.09375 46.40625 41.96875 
Q 44.875 39.84375 42.59375 38.34375 
Q 40.328125 36.859375 37.359375 36.28125 
L 37.359375 36.078125 
Q 40.328125 35.59375 42.859375 34.296875 
Q 45.40625 33.015625 47.265625 30.890625 
Q 49.125 28.765625 50.1875 25.828125 
Q 51.265625 22.90625 51.265625 19.1875 
z
M 40.4375 51.609375 
Q 40.4375 54.203125 39.765625 56.34375 
Q 39.109375 58.5 37.59375 60.03125 
Q 36.078125 61.578125 33.640625 62.421875 
Q 31.203125 63.28125 27.640625 63.28125 
Q 24.171875 63.28125 21.78125 62.421875 
Q 19.390625 61.578125 17.84375 60.03125 
Q 16.3125 58.5 15.625 56.34375 
Q 14.9375 54.203125 14.9375 51.609375 
Q 14.9375 49.5625 15.46875 47.40625 
Q 16.015625 45.265625 17.421875 43.5 
Q 18.84375 41.75 21.328125 40.625 
Q 23.828125 39.5 27.734375 39.5 
Q 31.890625 39.5 34.40625 40.625 
Q 36.921875 41.75 38.25 43.5 
Q 39.59375 45.265625 40.015625 47.40625 
Q 40.4375 49.5625 40.4375 51.609375 
z
M 42.140625 20.015625 
Q 42.140625 22.515625 41.453125 24.828125 
Q 40.765625 27.15625 39.109375 28.9375 
Q 37.453125 30.71875 34.640625 31.8125 
Q 31.84375 32.90625 27.640625 32.90625 
Q 23.78125 32.90625 21.0625 31.8125 
Q 18.359375 30.71875 16.671875 28.90625 
Q 14.984375 27.09375 14.203125 24.71875 
Q 13.421875 22.359375 13.421875 19.828125 
Q 13.421875 16.65625 14.203125 14.03125 
Q 14.984375 11.421875 16.6875 9.546875 
Q 18.40625 7.671875 21.1875 6.640625 
Q 23.96875 5.609375 27.9375 5.609375 
Q 31.9375 5.609375 34.671875 6.640625 
Q 37.40625 7.671875 39.0625 9.546875 
Q 40.71875 11.421875 41.421875 14.078125 
Q 42.140625 16.75 42.140625 20.015625 
z
" id="LiberationSans-56"/>
      </defs>
      <g style="fill:#262626;" transform="translate(87.1 201.473706)scale(0.1 -0.1)">
       <use xlink:href="#LiberationSans-48"/>
       <use x="55.615234" xlink:href="#LiberationSans-46"/>
       <use x="83.398438" xlink:href="#LiberationSans-56"/>
      </g>
     </g>
    </g>
    <g id="ytick_6">
     <g id="line2d_27">
      <path clip-path="url(#pbaabe3d3f0)" d="M 108 156.519199 
L 777.6 156.519199 
" style="fill:none;stroke:#ffffff;stroke-linecap:round;"/>
     </g>
     <g id="line2d_28"/>
     <g id="text_15">
      <!-- 1.0 -->
      <g style="fill:#262626;" transform="translate(87.1 160.142637)scale(0.1 -0.1)">
       <use xlink:href="#LiberationSans-49"/>
       <use x="55.615234" xlink:href="#LiberationSans-46"/>
       <use x="83.398438" xlink:href="#LiberationSans-48"/>
      </g>
     </g>
    </g>
    <g id="ytick_7">
     <g id="line2d_29">
      <path clip-path="url(#pbaabe3d3f0)" d="M 108 115.18813 
L 777.6 115.18813 
" style="fill:none;stroke:#ffffff;stroke-linecap:round;"/>
     </g>
     <g id="line2d_30"/>
     <g id="text_16">
      <!-- 1.2 -->
      <g style="fill:#262626;" transform="translate(87.1 118.811567)scale(0.1 -0.1)">
       <use xlink:href="#LiberationSans-49"/>
       <use x="55.615234" xlink:href="#LiberationSans-46"/>
       <use x="83.398438" xlink:href="#LiberationSans-50"/>
      </g>
     </g>
    </g>
    <g id="ytick_8">
     <g id="line2d_31">
      <path clip-path="url(#pbaabe3d3f0)" d="M 108 73.857061 
L 777.6 73.857061 
" style="fill:none;stroke:#ffffff;stroke-linecap:round;"/>
     </g>
     <g id="line2d_32"/>
     <g id="text_17">
      <!-- 1.4 -->
      <g style="fill:#262626;" transform="translate(87.1 77.480498)scale(0.1 -0.1)">
       <use xlink:href="#LiberationSans-49"/>
       <use x="55.615234" xlink:href="#LiberationSans-46"/>
       <use x="83.398438" xlink:href="#LiberationSans-52"/>
      </g>
     </g>
    </g>
    <g id="text_18">
     <!-- Spectral Irradiance ${W}{m}^{-2} {nm}^{-1}$ -->
     <defs>
      <path d="M 62.109375 19 
Q 62.109375 14.65625 60.421875 10.984375 
Q 58.734375 7.328125 55.21875 4.65625 
Q 51.703125 2 46.359375 0.5 
Q 41.015625 -0.984375 33.6875 -0.984375 
Q 20.84375 -0.984375 13.671875 3.515625 
Q 6.5 8.015625 4.546875 16.5 
L 13.578125 18.3125 
Q 14.265625 15.625 15.671875 13.421875 
Q 17.09375 11.234375 19.5 9.640625 
Q 21.921875 8.0625 25.484375 7.171875 
Q 29.046875 6.296875 34.03125 6.296875 
Q 38.1875 6.296875 41.65625 7 
Q 45.125 7.71875 47.609375 9.171875 
Q 50.09375 10.640625 51.484375 12.953125 
Q 52.875 15.28125 52.875 18.5 
Q 52.875 21.875 51.34375 23.96875 
Q 49.8125 26.078125 47.015625 27.4375 
Q 44.234375 28.8125 40.375 29.734375 
Q 36.53125 30.671875 31.84375 31.734375 
Q 28.953125 32.375 26.046875 33.125 
Q 23.140625 33.890625 20.484375 34.9375 
Q 17.828125 35.984375 15.484375 37.390625 
Q 13.140625 38.8125 11.421875 40.796875 
Q 9.71875 42.78125 8.734375 45.390625 
Q 7.765625 48 7.765625 51.421875 
Q 7.765625 56.296875 9.734375 59.78125 
Q 11.71875 63.28125 15.234375 65.53125 
Q 18.75 67.78125 23.53125 68.796875 
Q 28.328125 69.828125 33.890625 69.828125 
Q 40.28125 69.828125 44.8125 68.828125 
Q 49.359375 67.828125 52.484375 65.8125 
Q 55.609375 63.8125 57.484375 60.859375 
Q 59.375 57.90625 60.5 54 
L 51.3125 52.390625 
Q 50.640625 54.890625 49.34375 56.84375 
Q 48.046875 58.796875 45.9375 60.109375 
Q 43.84375 61.421875 40.84375 62.109375 
Q 37.84375 62.796875 33.796875 62.796875 
Q 29 62.796875 25.75 61.9375 
Q 22.515625 61.078125 20.53125 59.609375 
Q 18.5625 58.15625 17.703125 56.171875 
Q 16.84375 54.203125 16.84375 51.90625 
Q 16.84375 48.828125 18.375 46.84375 
Q 19.921875 44.875 22.5625 43.546875 
Q 25.203125 42.234375 28.65625 41.359375 
Q 32.125 40.484375 36.03125 39.59375 
Q 39.203125 38.875 42.359375 38.109375 
Q 45.515625 37.359375 48.390625 36.296875 
Q 51.265625 35.25 53.78125 33.828125 
Q 56.296875 32.421875 58.15625 30.375 
Q 60.015625 28.328125 61.0625 25.53125 
Q 62.109375 22.75 62.109375 19 
z
" id="LiberationSans-83"/>
      <path d="M 51.421875 26.65625 
Q 51.421875 20.65625 50.4375 15.578125 
Q 49.46875 10.5 47.1875 6.828125 
Q 44.921875 3.171875 41.1875 1.09375 
Q 37.453125 -0.984375 31.984375 -0.984375 
Q 26.3125 -0.984375 22.0625 1.171875 
Q 17.828125 3.328125 15.578125 8.203125 
L 15.328125 8.203125 
Q 15.375 8.109375 15.40625 7.328125 
Q 15.4375 6.546875 15.453125 5.375 
Q 15.484375 4.203125 15.5 2.75 
Q 15.53125 1.3125 15.53125 -0.09375 
L 15.53125 -20.75 
L 6.734375 -20.75 
L 6.734375 42.046875 
Q 6.734375 43.953125 6.703125 45.703125 
Q 6.6875 47.46875 6.640625 48.90625 
Q 6.59375 50.34375 6.546875 51.359375 
Q 6.5 52.390625 6.453125 52.828125 
L 14.9375 52.828125 
Q 14.984375 52.6875 15.0625 51.796875 
Q 15.140625 50.921875 15.203125 49.671875 
Q 15.28125 48.4375 15.359375 47.015625 
Q 15.4375 45.609375 15.4375 44.34375 
L 15.625 44.34375 
Q 16.84375 46.875 18.40625 48.65625 
Q 19.96875 50.4375 21.96875 51.578125 
Q 23.96875 52.734375 26.4375 53.25 
Q 28.90625 53.765625 31.984375 53.765625 
Q 37.453125 53.765625 41.1875 51.8125 
Q 44.921875 49.859375 47.1875 46.3125 
Q 49.46875 42.78125 50.4375 37.765625 
Q 51.421875 32.765625 51.421875 26.65625 
z
M 42.1875 26.46875 
Q 42.1875 31.34375 41.59375 35.15625 
Q 41.015625 38.96875 39.578125 41.59375 
Q 38.140625 44.234375 35.734375 45.59375 
Q 33.34375 46.96875 29.734375 46.96875 
Q 26.8125 46.96875 24.21875 46.140625 
Q 21.625 45.3125 19.703125 42.96875 
Q 17.78125 40.625 16.65625 36.5 
Q 15.53125 32.375 15.53125 25.78125 
Q 15.53125 20.171875 16.453125 16.28125 
Q 17.390625 12.40625 19.171875 10.015625 
Q 20.953125 7.625 23.578125 6.5625 
Q 26.21875 5.515625 29.640625 5.515625 
Q 33.296875 5.515625 35.71875 6.921875 
Q 38.140625 8.34375 39.578125 11.03125 
Q 41.015625 13.71875 41.59375 17.59375 
Q 42.1875 21.484375 42.1875 26.46875 
z
" id="LiberationSans-112"/>
      <path d="M 13.484375 24.5625 
Q 13.484375 20.40625 14.328125 16.90625 
Q 15.1875 13.421875 16.96875 10.90625 
Q 18.75 8.40625 21.53125 7 
Q 24.3125 5.609375 28.21875 5.609375 
Q 33.9375 5.609375 37.375 7.90625 
Q 40.828125 10.203125 42.046875 13.71875 
L 49.75 11.53125 
Q 48.921875 9.328125 47.4375 7.109375 
Q 45.953125 4.890625 43.453125 3.09375 
Q 40.96875 1.3125 37.234375 0.15625 
Q 33.5 -0.984375 28.21875 -0.984375 
Q 16.5 -0.984375 10.375 6 
Q 4.25 12.984375 4.25 26.765625 
Q 4.25 34.1875 6.09375 39.328125 
Q 7.953125 44.484375 11.171875 47.703125 
Q 14.40625 50.921875 18.703125 52.359375 
Q 23 53.8125 27.875 53.8125 
Q 34.515625 53.8125 38.984375 51.65625 
Q 43.453125 49.515625 46.15625 45.71875 
Q 48.875 41.9375 50.015625 36.8125 
Q 51.171875 31.6875 51.171875 25.734375 
L 51.171875 24.5625 
z
M 42.09375 31.296875 
Q 41.359375 39.65625 37.84375 43.484375 
Q 34.328125 47.3125 27.734375 47.3125 
Q 25.53125 47.3125 23.109375 46.609375 
Q 20.703125 45.90625 18.65625 44.09375 
Q 16.609375 42.28125 15.1875 39.171875 
Q 13.765625 36.078125 13.578125 31.296875 
z
" id="LiberationSans-101"/>
      <path d="M 13.421875 26.65625 
Q 13.421875 22.125 14.078125 18.3125 
Q 14.75 14.5 16.3125 11.734375 
Q 17.875 8.984375 20.4375 7.46875 
Q 23 5.953125 26.765625 5.953125 
Q 31.453125 5.953125 34.59375 8.484375 
Q 37.75 11.03125 38.484375 16.3125 
L 47.359375 15.71875 
Q 46.921875 12.453125 45.453125 9.421875 
Q 44 6.390625 41.484375 4.09375 
Q 38.96875 1.8125 35.34375 0.40625 
Q 31.734375 -0.984375 27 -0.984375 
Q 20.796875 -0.984375 16.453125 1.109375 
Q 12.109375 3.21875 9.390625 6.90625 
Q 6.6875 10.59375 5.46875 15.59375 
Q 4.25 20.609375 4.25 26.46875 
Q 4.25 31.78125 5.125 35.859375 
Q 6 39.9375 7.59375 42.984375 
Q 9.1875 46.046875 11.328125 48.125 
Q 13.484375 50.203125 15.984375 51.4375 
Q 18.5 52.6875 21.28125 53.25 
Q 24.078125 53.8125 26.90625 53.8125 
Q 31.34375 53.8125 34.8125 52.59375 
Q 38.28125 51.375 40.796875 49.25 
Q 43.3125 47.125 44.875 44.234375 
Q 46.4375 41.359375 47.078125 38.03125 
L 38.03125 37.359375 
Q 37.359375 41.75 34.5625 44.328125 
Q 31.78125 46.921875 26.65625 46.921875 
Q 22.90625 46.921875 20.390625 45.671875 
Q 17.875 44.4375 16.3125 41.921875 
Q 14.75 39.40625 14.078125 35.59375 
Q 13.421875 31.78125 13.421875 26.65625 
z
" id="LiberationSans-99"/>
      <path d="M 27.046875 0.390625 
Q 25.046875 -0.140625 22.96875 -0.453125 
Q 20.90625 -0.78125 18.171875 -0.78125 
Q 7.625 -0.78125 7.625 11.1875 
L 7.625 46.4375 
L 1.515625 46.4375 
L 1.515625 52.828125 
L 7.953125 52.828125 
L 10.546875 64.65625 
L 16.40625 64.65625 
L 16.40625 52.828125 
L 26.171875 52.828125 
L 26.171875 46.4375 
L 16.40625 46.4375 
L 16.40625 13.09375 
Q 16.40625 9.28125 17.640625 7.734375 
Q 18.890625 6.203125 21.96875 6.203125 
Q 23.25 6.203125 24.4375 6.390625 
Q 25.640625 6.59375 27.046875 6.890625 
z
" id="LiberationSans-116"/>
      <path d="M 6.9375 0 
L 6.9375 40.53125 
Q 6.9375 42.1875 6.90625 43.921875 
Q 6.890625 45.65625 6.828125 47.265625 
Q 6.78125 48.875 6.734375 50.28125 
Q 6.6875 51.703125 6.640625 52.828125 
L 14.9375 52.828125 
Q 14.984375 51.703125 15.0625 50.265625 
Q 15.140625 48.828125 15.203125 47.3125 
Q 15.28125 45.796875 15.296875 44.40625 
Q 15.328125 43.015625 15.328125 42.046875 
L 15.53125 42.046875 
Q 16.453125 45.0625 17.5 47.28125 
Q 18.5625 49.515625 19.96875 50.953125 
Q 21.390625 52.390625 23.34375 53.09375 
Q 25.296875 53.8125 28.078125 53.8125 
Q 29.15625 53.8125 30.125 53.640625 
Q 31.109375 53.46875 31.640625 53.328125 
L 31.640625 45.265625 
Q 30.765625 45.515625 29.59375 45.625 
Q 28.421875 45.75 26.953125 45.75 
Q 23.921875 45.75 21.796875 44.375 
Q 19.671875 43.015625 18.328125 40.59375 
Q 17 38.1875 16.359375 34.84375 
Q 15.71875 31.5 15.71875 27.546875 
L 15.71875 0 
z
" id="LiberationSans-114"/>
      <path d="M 20.21875 -0.984375 
Q 12.25 -0.984375 8.25 3.21875 
Q 4.25 7.421875 4.25 14.75 
Q 4.25 19.96875 6.21875 23.3125 
Q 8.203125 26.65625 11.390625 28.5625 
Q 14.59375 30.46875 18.6875 31.203125 
Q 22.796875 31.9375 27.046875 32.03125 
L 38.921875 32.234375 
L 38.921875 35.109375 
Q 38.921875 38.375 38.234375 40.671875 
Q 37.546875 42.96875 36.125 44.375 
Q 34.71875 45.796875 32.59375 46.453125 
Q 30.46875 47.125 27.59375 47.125 
Q 25.046875 47.125 23 46.75 
Q 20.953125 46.390625 19.4375 45.4375 
Q 17.921875 44.484375 16.984375 42.84375 
Q 16.0625 41.21875 15.765625 38.71875 
L 6.59375 39.546875 
Q 7.078125 42.671875 8.4375 45.28125 
Q 9.8125 47.90625 12.328125 49.796875 
Q 14.84375 51.703125 18.625 52.75 
Q 22.40625 53.8125 27.78125 53.8125 
Q 37.75 53.8125 42.765625 49.234375 
Q 47.796875 44.671875 47.796875 36.03125 
L 47.796875 13.28125 
Q 47.796875 9.375 48.828125 7.390625 
Q 49.859375 5.421875 52.734375 5.421875 
Q 53.46875 5.421875 54.203125 5.515625 
Q 54.9375 5.609375 55.609375 5.765625 
L 55.609375 0.296875 
Q 53.953125 -0.09375 52.3125 -0.28125 
Q 50.6875 -0.484375 48.828125 -0.484375 
Q 46.34375 -0.484375 44.5625 0.171875 
Q 42.78125 0.828125 41.65625 2.171875 
Q 40.53125 3.515625 39.9375 5.484375 
Q 39.359375 7.46875 39.203125 10.109375 
L 38.921875 10.109375 
Q 37.5 7.5625 35.8125 5.515625 
Q 34.125 3.46875 31.875 2.03125 
Q 29.640625 0.59375 26.78125 -0.1875 
Q 23.921875 -0.984375 20.21875 -0.984375 
z
M 22.21875 5.609375 
Q 26.421875 5.609375 29.5625 7.140625 
Q 32.71875 8.6875 34.78125 11.078125 
Q 36.859375 13.484375 37.890625 16.3125 
Q 38.921875 19.140625 38.921875 21.734375 
L 38.921875 26.078125 
L 29.296875 25.875 
Q 26.078125 25.828125 23.171875 25.40625 
Q 20.265625 25 18.0625 23.78125 
Q 15.875 22.5625 14.578125 20.359375 
Q 13.28125 18.171875 13.28125 14.59375 
Q 13.28125 10.296875 15.59375 7.953125 
Q 17.921875 5.609375 22.21875 5.609375 
z
" id="LiberationSans-97"/>
      <path d="M 6.734375 0 
L 6.734375 72.46875 
L 15.53125 72.46875 
L 15.53125 0 
z
" id="LiberationSans-108"/>
      <path d="M 9.234375 0 
L 9.234375 68.796875 
L 18.5625 68.796875 
L 18.5625 0 
z
" id="LiberationSans-73"/>
      <path d="M 40.09375 8.5 
Q 37.640625 3.421875 33.609375 1.21875 
Q 29.59375 -0.984375 23.640625 -0.984375 
Q 13.625 -0.984375 8.90625 5.75 
Q 4.203125 12.5 4.203125 26.171875 
Q 4.203125 53.8125 23.640625 53.8125 
Q 29.640625 53.8125 33.640625 51.609375 
Q 37.640625 49.421875 40.09375 44.625 
L 40.1875 44.625 
Q 40.1875 45.125 40.15625 46.171875 
Q 40.140625 47.21875 40.109375 48.359375 
Q 40.09375 49.515625 40.09375 50.53125 
Q 40.09375 51.5625 40.09375 52 
L 40.09375 72.46875 
L 48.875 72.46875 
L 48.875 10.890625 
Q 48.875 8.984375 48.890625 7.21875 
Q 48.921875 5.46875 48.96875 4 
Q 49.03125 2.546875 49.078125 1.484375 
Q 49.125 0.4375 49.171875 0 
L 40.765625 0 
Q 40.671875 0.484375 40.59375 1.390625 
Q 40.53125 2.296875 40.453125 3.46875 
Q 40.375 4.640625 40.328125 5.9375 
Q 40.28125 7.234375 40.28125 8.5 
z
M 13.421875 26.46875 
Q 13.421875 21 14.109375 17.09375 
Q 14.796875 13.1875 16.3125 10.671875 
Q 17.828125 8.15625 20.171875 6.984375 
Q 22.515625 5.8125 25.875 5.8125 
Q 29.34375 5.8125 32 6.9375 
Q 34.671875 8.0625 36.453125 10.578125 
Q 38.234375 13.09375 39.15625 17.140625 
Q 40.09375 21.1875 40.09375 27.046875 
Q 40.09375 32.671875 39.15625 36.546875 
Q 38.234375 40.4375 36.421875 42.828125 
Q 34.625 45.21875 32 46.265625 
Q 29.390625 47.3125 25.984375 47.3125 
Q 22.75 47.3125 20.40625 46.1875 
Q 18.0625 45.0625 16.5 42.578125 
Q 14.9375 40.09375 14.171875 36.109375 
Q 13.421875 32.125 13.421875 26.46875 
z
" id="LiberationSans-100"/>
      <path d="M 6.6875 64.0625 
L 6.6875 72.46875 
L 15.484375 72.46875 
L 15.484375 64.0625 
z
M 6.6875 0 
L 6.6875 52.828125 
L 15.484375 52.828125 
L 15.484375 0 
z
" id="LiberationSans-105"/>
      <path d="M 9.625 72.90625 
L 19.1875 72.90625 
L 22.703125 10.890625 
L 50.203125 72.90625 
L 61.1875 72.90625 
L 64.796875 10.890625 
L 92 72.90625 
L 102 72.90625 
L 69.578125 0 
L 57.171875 0 
L 53.8125 60.796875 
L 26.515625 0 
L 14.109375 0 
z
" id="DejaVuSans-Oblique-87"/>
      <path d="M 89.796875 33.015625 
L 83.40625 0 
L 74.421875 0 
L 80.71875 32.71875 
Q 81.109375 34.8125 81.296875 36.328125 
Q 81.5 37.84375 81.5 38.921875 
Q 81.5 43.3125 79.046875 45.75 
Q 76.609375 48.1875 72.21875 48.1875 
Q 65.671875 48.1875 60.546875 43.28125 
Q 55.421875 38.375 53.90625 30.515625 
L 47.90625 0 
L 38.921875 0 
L 45.3125 32.71875 
Q 45.703125 34.515625 45.890625 36.046875 
Q 46.09375 37.59375 46.09375 38.8125 
Q 46.09375 43.265625 43.65625 45.71875 
Q 41.21875 48.1875 36.921875 48.1875 
Q 30.28125 48.1875 25.140625 43.28125 
Q 20.015625 38.375 18.5 30.515625 
L 12.5 0 
L 3.515625 0 
L 14.203125 54.6875 
L 23.1875 54.6875 
L 21.484375 46.1875 
Q 25.140625 50.984375 30.046875 53.484375 
Q 34.96875 56 40.578125 56 
Q 46.53125 56 50.359375 52.875 
Q 54.203125 49.75 54.984375 44.1875 
Q 59.078125 49.953125 64.46875 52.96875 
Q 69.875 56 75.875 56 
Q 82.90625 56 86.734375 51.953125 
Q 90.578125 47.90625 90.578125 40.484375 
Q 90.578125 38.875 90.375 36.9375 
Q 90.1875 35.015625 89.796875 33.015625 
z
" id="DejaVuSans-Oblique-109"/>
      <path d="M 10.59375 35.5 
L 73.1875 35.5 
L 73.1875 27.203125 
L 10.59375 27.203125 
z
" id="DejaVuSans-8722"/>
      <path d="M 19.1875 8.296875 
L 53.609375 8.296875 
L 53.609375 0 
L 7.328125 0 
L 7.328125 8.296875 
Q 12.9375 14.109375 22.625 23.890625 
Q 32.328125 33.6875 34.8125 36.53125 
Q 39.546875 41.84375 41.421875 45.53125 
Q 43.3125 49.21875 43.3125 52.78125 
Q 43.3125 58.59375 39.234375 62.25 
Q 35.15625 65.921875 28.609375 65.921875 
Q 23.96875 65.921875 18.8125 64.3125 
Q 13.671875 62.703125 7.8125 59.421875 
L 7.8125 69.390625 
Q 13.765625 71.78125 18.9375 73 
Q 24.125 74.21875 28.421875 74.21875 
Q 39.75 74.21875 46.484375 68.546875 
Q 53.21875 62.890625 53.21875 53.421875 
Q 53.21875 48.921875 51.53125 44.890625 
Q 49.859375 40.875 45.40625 35.40625 
Q 44.1875 33.984375 37.640625 27.21875 
Q 31.109375 20.453125 19.1875 8.296875 
z
" id="DejaVuSans-50"/>
      <path d="M 55.71875 33.015625 
L 49.3125 0 
L 40.28125 0 
L 46.6875 32.671875 
Q 47.125 34.96875 47.359375 36.71875 
Q 47.609375 38.484375 47.609375 39.5 
Q 47.609375 43.609375 45.015625 45.890625 
Q 42.4375 48.1875 37.796875 48.1875 
Q 30.5625 48.1875 25.34375 43.375 
Q 20.125 38.578125 18.5 30.328125 
L 12.5 0 
L 3.515625 0 
L 14.109375 54.6875 
L 23.09375 54.6875 
L 21.296875 46.09375 
Q 25.046875 50.828125 30.3125 53.40625 
Q 35.59375 56 41.40625 56 
Q 48.640625 56 52.609375 52.09375 
Q 56.59375 48.1875 56.59375 41.109375 
Q 56.59375 39.359375 56.375 37.359375 
Q 56.15625 35.359375 55.71875 33.015625 
z
" id="DejaVuSans-Oblique-110"/>
      <path d="M 12.40625 8.296875 
L 28.515625 8.296875 
L 28.515625 63.921875 
L 10.984375 60.40625 
L 10.984375 69.390625 
L 28.421875 72.90625 
L 38.28125 72.90625 
L 38.28125 8.296875 
L 54.390625 8.296875 
L 54.390625 0 
L 12.40625 0 
z
" id="DejaVuSans-49"/>
     </defs>
     <g style="fill:#262626;" transform="translate(80.79 294.45)rotate(-90)scale(0.11 -0.11)">
      <use transform="translate(0 0.765625)" xlink:href="#LiberationSans-83"/>
      <use transform="translate(66.699219 0.765625)" xlink:href="#LiberationSans-112"/>
      <use transform="translate(122.314453 0.765625)" xlink:href="#LiberationSans-101"/>
      <use transform="translate(177.929688 0.765625)" xlink:href="#LiberationSans-99"/>
      <use transform="translate(227.929688 0.765625)" xlink:href="#LiberationSans-116"/>
      <use transform="translate(255.712891 0.765625)" xlink:href="#LiberationSans-114"/>
      <use transform="translate(289.013672 0.765625)" xlink:href="#LiberationSans-97"/>
      <use transform="translate(344.628906 0.765625)" xlink:href="#LiberationSans-108"/>
      <use transform="translate(366.845703 0.765625)" xlink:href="#LiberationSans-32"/>
      <use transform="translate(394.628906 0.765625)" xlink:href="#LiberationSans-73"/>
      <use transform="translate(422.412109 0.765625)" xlink:href="#LiberationSans-114"/>
      <use transform="translate(455.712891 0.765625)" xlink:href="#LiberationSans-114"/>
      <use transform="translate(489.013672 0.765625)" xlink:href="#LiberationSans-97"/>
      <use transform="translate(544.628906 0.765625)" xlink:href="#LiberationSans-100"/>
      <use transform="translate(600.244141 0.765625)" xlink:href="#LiberationSans-105"/>
      <use transform="translate(622.460938 0.765625)" xlink:href="#LiberationSans-97"/>
      <use transform="translate(678.076172 0.765625)" xlink:href="#LiberationSans-110"/>
      <use transform="translate(733.691406 0.765625)" xlink:href="#LiberationSans-99"/>
      <use transform="translate(783.691406 0.765625)" xlink:href="#LiberationSans-101"/>
      <use transform="translate(839.306641 0.765625)" xlink:href="#LiberationSans-32"/>
      <use transform="translate(867.089844 0.765625)" xlink:href="#DejaVuSans-Oblique-87"/>
      <use transform="translate(965.966797 0.765625)" xlink:href="#DejaVuSans-Oblique-109"/>
      <use transform="translate(1068.028802 39.046875)scale(0.7)" xlink:href="#DejaVuSans-8722"/>
      <use transform="translate(1126.681146 39.046875)scale(0.7)" xlink:href="#DejaVuSans-50"/>
      <use transform="translate(1173.951654 0.765625)" xlink:href="#DejaVuSans-Oblique-110"/>
      <use transform="translate(1237.33056 0.765625)" xlink:href="#DejaVuSans-Oblique-109"/>
      <use transform="translate(1339.392565 39.046875)scale(0.7)" xlink:href="#DejaVuSans-8722"/>
      <use transform="translate(1398.044909 39.046875)scale(0.7)" xlink:href="#DejaVuSans-49"/>
     </g>
    </g>
   </g>
   <g id="line2d_33">
    <path clip-path="url(#pbaabe3d3f0)" d="M 138.436364 363.174545 
L 141.709091 363.080247 
L 142.036364 362.873449 
L 142.2 362.40306 
L 142.772727 360.783956 
L 143.1 358.473136 
L 143.181818 358.566545 
L 143.263636 358.2826 
L 143.427273 355.759958 
L 143.590909 353.636161 
L 144.163636 347.94694 
L 144.245455 349.776459 
L 144.327273 349.310452 
L 144.572727 342.568528 
L 144.654545 343.373863 
L 144.981818 339.870022 
L 145.145455 335.453797 
L 145.472727 339.154995 
L 145.718182 331.211163 
L 145.8 331.134701 
L 146.045455 317.375588 
L 146.209091 319.187955 
L 146.290909 322.312584 
L 146.372727 320.448553 
L 146.618182 309.047377 
L 146.781818 315.984797 
L 147.027273 312.22367 
L 147.109091 313.033759 
L 147.190909 315.096179 
L 147.272727 313.943042 
L 147.436364 308.458409 
L 147.518182 309.66321 
L 147.763636 318.191876 
L 148.254545 301.882636 
L 148.336364 301.851638 
L 148.5 305.614832 
L 148.745455 299.406905 
L 148.827273 302.736123 
L 148.990909 312.670045 
L 149.154545 301.671848 
L 149.236364 302.97171 
L 149.4 300.520778 
L 149.563636 302.61213 
L 149.645455 301.417662 
L 149.727273 303.525546 
L 149.809091 301.756577 
L 149.972727 289.871828 
L 150.3 299.20645 
L 150.709091 282.289643 
L 150.872727 289.549445 
L 151.281818 309.448289 
L 151.527273 282.082988 
L 151.772727 293.641221 
L 152.181818 279.536994 
L 152.263636 280.142494 
L 152.345455 276.771945 
L 152.590909 260.479238 
L 152.754545 263.895251 
L 152.918182 269.960585 
L 153.163636 256.403994 
L 153.245455 266.463976 
L 153.327273 264.748737 
L 153.409091 260.700359 
L 153.736364 283.236124 
L 153.818182 283.300188 
L 153.9 283.746563 
L 154.472727 238.53244 
L 154.554545 241.471079 
L 154.718182 265.519562 
L 154.963636 250.70444 
L 155.372727 297.751596 
L 155.618182 262.661518 
L 155.7 266.978548 
L 155.781818 270.212704 
L 155.945455 265.337705 
L 156.190909 267.914697 
L 156.6 233.738036 
L 156.681818 231.706614 
L 156.845455 261.994021 
L 157.009091 304.748946 
L 157.336364 230.706402 
L 157.581818 297.288688 
L 157.909091 197.007115 
L 158.236364 181.956406 
L 158.4 174.318424 
L 158.563636 180.881798 
L 158.727273 177.496783 
L 159.218182 188.457783 
L 159.545455 167.436801 
L 159.709091 195.969705 
L 160.036364 163.367757 
L 160.2 171.086334 
L 160.363636 172.774709 
L 160.690909 159.35451 
L 160.854545 163.975324 
L 161.018182 172.241538 
L 161.181818 164.053853 
L 161.345455 180.35276 
L 161.509091 155.134608 
L 161.672727 157.554542 
L 161.836364 163.688073 
L 162 164.4093 
L 162.163636 157.940988 
L 162.490909 169.848469 
L 162.654545 167.626924 
L 162.818182 181.801414 
L 163.145455 231.371832 
L 163.309091 143.541243 
L 163.636364 173.768721 
L 164.127273 129.530011 
L 164.290909 157.825261 
L 164.454545 165.295852 
L 164.618182 135.998323 
L 164.781818 138.767505 
L 164.945455 122.627722 
L 165.109091 118.845929 
L 165.272727 124.756272 
L 165.436364 115.353454 
L 165.6 140.6894 
L 165.763636 109.877087 
L 165.927273 106.467274 
L 166.090909 106.735926 
L 166.418182 86.752354 
L 166.581818 98.20106 
L 166.745455 118.205298 
L 166.909091 100.10229 
L 167.072727 101.652205 
L 167.236364 92.704028 
L 167.4 90.120836 
L 167.727273 97.436436 
L 167.890909 98.841692 
L 168.054545 89.252884 
L 168.381818 85.181774 
L 168.709091 96.485821 
L 168.872727 90.596144 
L 169.036364 102.458161 
L 169.2 90.84413 
L 169.363636 89.418208 
L 169.527273 99.709644 
L 169.690909 95.039234 
L 169.854545 80.862677 
L 170.018182 91.546758 
L 170.181818 88.240273 
L 170.345455 78.920117 
L 170.509091 88.3436 
L 170.672727 86.421706 
L 170.836364 77.184212 
L 171 82.412592 
L 171.163636 77.473529 
L 171.327273 77.246208 
L 171.490909 75.94428 
L 171.981818 85.078446 
L 172.145455 137.548238 
L 172.472727 89.314881 
L 172.636364 105.020687 
L 172.8 74.518358 
L 173.127273 98.283723 
L 173.290909 79.664076 
L 173.454545 86.21505 
L 173.618182 68.938663 
L 173.781818 83.197882 
L 173.945455 78.238154 
L 174.109091 85.822405 
L 174.272727 85.657081 
L 174.436364 86.442371 
L 174.6 94.729251 
L 174.763636 94.708585 
L 174.927273 82.185271 
L 175.090909 101.094235 
L 175.418182 70.695234 
L 175.745455 90.182833 
L 175.909091 76.956891 
L 176.072727 84.251825 
L 176.4 71.273869 
L 176.727273 94.460599 
L 177.054545 83.90051 
L 177.218182 135.50235 
L 177.381818 102.685481 
L 177.545455 110.600381 
L 177.709091 87.310324 
L 177.872727 85.181774 
L 178.036364 78.816789 
L 178.2 95.018568 
L 178.363636 74.642351 
L 178.527273 76.770901 
L 178.690909 84.623804 
L 178.854545 119.424564 
L 179.181818 70.922555 
L 179.345455 82.164606 
L 179.509091 66.665455 
L 179.672727 71.9145 
L 179.836364 102.995464 
L 180 84.375818 
L 180.163636 80.036055 
L 180.327273 67.822724 
L 180.490909 89.790188 
L 180.654545 76.006276 
L 180.981818 92.538704 
L 181.145455 102.892137 
L 181.309091 79.767404 
L 181.472727 84.334487 
L 181.636364 74.456361 
L 181.963636 83.445869 
L 182.127273 79.705407 
L 182.290909 87.682303 
L 182.454545 78.982113 
L 182.618182 81.131329 
L 182.781818 81.317319 
L 182.945455 75.448307 
L 183.109091 83.507865 
L 183.272727 77.948836 
L 183.436364 76.274928 
L 183.763636 87.888959 
L 183.927273 81.854623 
L 184.090909 96.899132 
L 184.254545 92.084062 
L 184.418182 76.233597 
L 184.581818 89.87285 
L 184.745455 79.416089 
L 184.909091 84.892456 
L 185.072727 83.053224 
L 185.236364 98.180395 
L 185.4 80.61469 
L 185.563636 83.073889 
L 185.727273 89.810853 
L 185.890909 89.562867 
L 186.054545 98.449047 
L 186.218182 83.4872 
L 186.381818 82.226602 
L 186.545455 83.631858 
L 186.872727 92.084062 
L 187.036364 85.181774 
L 187.2 93.695974 
L 188.018182 76.502249 
L 188.181818 77.060218 
L 188.345455 79.292096 
L 188.509091 86.070392 
L 188.672727 79.891397 
L 188.836364 86.194385 
L 189 123.826323 
L 189.327273 90.988789 
L 189.490909 96.589149 
L 189.654545 92.745359 
L 189.818182 93.923295 
L 189.981818 97.209115 
L 190.145455 89.149556 
L 190.309091 88.260938 
L 190.472727 91.588089 
L 190.636364 91.526093 
L 190.8 88.777577 
L 191.127273 96.010514 
L 191.454545 85.450426 
L 191.618182 85.884402 
L 191.781818 87.227662 
L 191.945455 85.553753 
L 192.109091 86.421706 
L 192.436364 89.624864 
L 192.6 91.009454 
L 192.763636 86.876347 
L 192.927273 90.761468 
L 193.090909 99.007016 
L 193.254545 89.273549 
L 193.581818 99.812972 
L 193.745455 89.810853 
L 193.909091 88.488259 
L 194.072727 88.3436 
L 194.236364 87.103668 
L 194.4 96.961128 
L 194.890909 101.404218 
L 195.054545 101.652205 
L 195.218182 94.067953 
L 195.381818 108.409835 
L 195.545455 99.523655 
L 195.709091 103.01613 
L 195.872727 98.676368 
L 196.036364 108.4305 
L 196.2 92.249386 
L 196.363636 96.44449 
L 196.527273 93.179335 
L 196.690909 99.316999 
L 196.854545 90.306826 
L 197.018182 88.488259 
L 197.181818 89.604198 
L 197.345455 95.307886 
L 197.509091 95.142561 
L 197.672727 94.625923 
L 197.836364 91.836076 
L 198 92.993346 
L 198.163636 91.009454 
L 198.327273 98.717699 
L 198.490909 99.812972 
L 198.654545 102.272171 
L 198.818182 110.352395 
L 198.981818 109.009135 
L 199.145455 93.055342 
L 199.309091 103.656762 
L 199.472727 95.555872 
L 199.636364 98.511043 
L 199.8 110.641712 
L 199.963636 141.495355 
L 200.127273 131.348578 
L 200.290909 104.028741 
L 200.454545 103.078127 
L 200.618182 101.383553 
L 200.781818 102.416829 
L 200.945455 104.483383 
L 201.109091 104.049407 
L 201.272727 101.817529 
L 201.436364 97.188449 
L 201.6 97.41577 
L 201.763636 99.337665 
L 201.927273 98.449047 
L 202.090909 93.861298 
L 202.254545 97.560429 
L 202.418182 98.056402 
L 202.581818 101.734867 
L 202.745455 99.482324 
L 202.909091 99.854303 
L 203.072727 101.982853 
L 203.236364 98.94502 
L 203.4 101.362887 
L 203.563636 99.957631 
L 203.727273 102.189509 
L 203.890909 101.755532 
L 204.054545 102.768144 
L 204.218182 101.507546 
L 204.545455 105.991967 
L 204.709091 105.805977 
L 204.872727 111.592327 
L 205.036364 180.728873 
L 205.2 152.48942 
L 205.363636 151.14616 
L 205.854545 125.190249 
L 206.018182 126.636836 
L 206.181818 129.282024 
L 206.345455 124.735607 
L 206.509091 125.252245 
L 206.672727 112.067634 
L 207.327273 125.748218 
L 207.490909 125.520897 
L 207.654545 124.136306 
L 207.981818 115.415451 
L 208.472727 118.515281 
L 208.636364 117.667994 
L 208.8 116.138744 
L 208.963636 116.552055 
L 209.127273 118.163967 
L 209.290909 120.995145 
L 209.454545 118.845929 
L 209.618182 127.008816 
L 209.781818 124.528952 
L 210.109091 169.180972 
L 210.272727 189.017819 
L 210.6 158.653949 
L 210.763636 130.046649 
L 211.090909 164.155114 
L 211.254545 167.387204 
L 211.418182 159.333845 
L 211.581818 158.610551 
L 211.745455 166.918096 
L 211.909091 165.81249 
L 212.072727 150.443532 
L 212.236364 161.268139 
L 212.563636 137.899552 
L 212.727273 130.45996 
L 213.054545 135.977658 
L 213.218182 136.308306 
L 213.381818 132.051206 
L 213.545455 138.850167 
L 213.709091 133.394466 
L 213.872727 134.241753 
L 214.036364 134.11776 
L 214.363636 127.422126 
L 214.527273 127.504789 
L 214.690909 127.980096 
L 214.854545 127.814772 
L 215.181818 129.943322 
L 215.345455 130.211974 
L 215.509091 131.224585 
L 215.672727 130.377298 
L 215.836364 131.513902 
L 216 128.558731 
L 216.163636 129.220028 
L 216.327273 132.030541 
L 216.490909 132.21653 
L 216.654545 130.769943 
L 216.818182 137.258921 
L 216.981818 312.09761 
L 217.145455 333.564967 
L 217.309091 231.967 
L 217.472727 290.396732 
L 218.290909 151.93145 
L 218.454545 149.348259 
L 218.618182 143.169264 
L 218.945455 139.94544 
L 219.109091 140.048768 
L 219.436364 139.966106 
L 219.6 139.428802 
L 219.763636 140.730731 
L 219.927273 140.937386 
L 220.090909 139.924775 
L 220.254545 142.321977 
L 220.418182 142.838615 
L 220.581818 141.764007 
L 220.909091 144.078547 
L 221.072727 143.107267 
L 221.236364 142.962608 
L 221.727273 149.100272 
L 221.890909 155.58925 
L 222.054545 152.820068 
L 222.381818 156.209216 
L 222.545455 154.43198 
L 222.709091 155.155274 
L 222.872727 158.616751 
L 223.2 151.456143 
L 223.527273 158.877137 
L 223.690909 156.564663 
L 223.854545 156.291878 
L 224.018182 160.057139 
L 224.181818 157.65167 
L 224.345455 162.16089 
L 224.509091 153.998004 
L 224.836364 156.841581 
L 225 161.989366 
L 225.163636 161.710381 
L 225.327273 162.15469 
L 225.654545 170.497367 
L 225.818182 190.243285 
L 225.981818 191.801466 
L 226.145455 203.696548 
L 226.309091 199.949887 
L 226.472727 205.498583 
L 226.636364 189.906437 
L 226.8 198.05899 
L 226.963636 172.448193 
L 227.127273 181.15045 
L 227.290909 233.857896 
L 227.454545 184.171751 
L 227.618182 177.697239 
L 227.781818 184.355674 
L 227.945455 174.750334 
L 228.109091 200.185474 
L 228.272727 185.171963 
L 228.436364 187.66216 
L 228.6 186.141176 
L 228.763636 191.731204 
L 228.927273 180.032444 
L 229.090909 184.194483 
L 229.254545 171.156597 
L 229.418182 176.905749 
L 229.581818 169.966263 
L 229.745455 171.842693 
L 229.909091 171.433515 
L 230.072727 168.662267 
L 230.236364 169.691411 
L 230.4 172.202273 
L 230.563636 170.631693 
L 230.727273 174.221296 
L 230.890909 168.451479 
L 231.054545 167.994771 
L 231.218182 173.161154 
L 231.381818 173.030961 
L 231.545455 174.194431 
L 231.709091 191.857263 
L 231.872727 176.246518 
L 232.2 178.135348 
L 232.363636 199.916822 
L 232.690909 176.475906 
L 232.854545 172.9297 
L 233.181818 172.884236 
L 233.509091 173.779054 
L 233.836364 171.121466 
L 234.163636 178.244876 
L 234.327273 200.160675 
L 234.654545 178.96197 
L 234.818182 180.797069 
L 234.981818 177.323193 
L 235.145455 179.931183 
L 235.309091 177.418254 
L 235.472727 179.253354 
L 235.8 185.029371 
L 235.963636 180.026245 
L 236.127273 179.358748 
L 236.290909 180.063443 
L 236.454545 183.08681 
L 236.618182 182.48751 
L 236.781818 188.420585 
L 236.945455 183.82457 
L 237.109091 184.43007 
L 237.272727 183.675778 
L 237.436364 181.497631 
L 237.6 188.51978 
L 237.763636 187.932878 
L 238.090909 183.299665 
L 238.254545 185.289756 
L 238.418182 184.923976 
L 238.581818 188.162266 
L 239.236364 215.901613 
L 239.4 234.407599 
L 239.563636 224.432346 
L 239.727273 256.827638 
L 239.890909 219.695805 
L 240.054545 247.11277 
L 240.218182 234.014954 
L 240.381818 229.916978 
L 240.545455 200.202006 
L 240.872727 213.345286 
L 241.036364 239.526452 
L 241.2 236.926728 
L 241.363636 226.963874 
L 241.527273 242.171641 
L 241.854545 229.865315 
L 242.018182 241.442147 
L 242.181818 241.785195 
L 242.345455 231.845073 
L 242.509091 251.37607 
L 242.672727 221.925616 
L 242.836364 248.249374 
L 243 220.249641 
L 243.163636 219.224631 
L 243.327273 212.307876 
L 243.490909 227.641703 
L 243.654545 219.139902 
L 243.981818 225.498687 
L 244.145455 227.040336 
L 244.309091 210.90262 
L 244.472727 248.763946 
L 244.636364 256.143608 
L 244.8 279.109217 
L 244.963636 283.529575 
L 245.454545 335.061152 
L 245.618182 314.217894 
L 245.781818 331.624474 
L 245.945455 331.240095 
L 246.109091 323.988559 
L 246.436364 271.39684 
L 246.6 290.698449 
L 246.763636 284.248736 
L 246.927273 308.846921 
L 247.090909 307.404467 
L 247.254545 291.40521 
L 247.418182 325.131363 
L 247.581818 290.824509 
L 247.745455 309.628079 
L 247.909091 267.050878 
L 248.072727 334.358524 
L 248.236364 269.01617 
L 248.4 310.64689 
L 248.727273 280.537206 
L 248.890909 296.623258 
L 249.054545 299.119654 
L 249.218182 310.289376 
L 249.381818 273.376598 
L 249.545455 290.237608 
L 249.872727 273.318734 
L 250.036364 277.073662 
L 250.2 264.837599 
L 250.363636 273.812641 
L 250.527273 265.077319 
L 250.854545 265.317039 
L 251.018182 236.492752 
L 251.181818 229.923178 
L 251.345455 239.824036 
L 251.509091 224.593537 
L 251.672727 229.615262 
L 252 251.229344 
L 252.163636 248.406432 
L 252.327273 251.845177 
L 252.490909 239.007747 
L 252.654545 243.5149 
L 252.818182 239.086276 
L 252.981818 245.502925 
L 253.145455 224.595603 
L 253.472727 233.157334 
L 253.636364 219.983056 
L 253.8 229.398274 
L 253.963636 217.372999 
L 254.290909 220.46043 
L 254.454545 217.707781 
L 254.618182 220.906805 
L 254.781818 216.794364 
L 254.945455 217.282071 
L 255.109091 219.910727 
L 255.272727 216.674504 
L 255.6 217.670583 
L 255.763636 219.435419 
L 256.090909 219.642075 
L 256.254545 220.253774 
L 256.418182 218.488938 
L 256.581818 221.619766 
L 256.745455 220.404633 
L 256.909091 222.533183 
L 257.072727 230.625806 
L 257.4 221.692096 
L 257.563636 221.807823 
L 257.727273 223.182081 
L 257.890909 223.279209 
L 258.054545 222.578647 
L 258.218182 223.337072 
L 258.381818 223.56646 
L 258.545455 222.963026 
L 258.709091 225.385027 
L 258.872727 224.765061 
L 259.036364 226.292244 
L 259.2 224.17196 
L 259.363636 229.096557 
L 259.527273 227.114732 
L 259.690909 226.560896 
L 259.854545 228.889901 
L 260.018182 227.835959 
L 260.181818 228.689446 
L 260.345455 227.346186 
L 260.509091 227.556974 
L 260.672727 228.191406 
L 260.836364 228.026082 
L 261 229.495402 
L 261.163636 228.658447 
L 261.327273 229.263948 
L 261.490909 229.15442 
L 261.654545 231.429696 
L 261.981818 230.195963 
L 262.145455 230.247627 
L 262.472727 232.235651 
L 262.636364 231.324301 
L 262.8 232.225319 
L 263.127273 232.142657 
L 263.290909 233.450785 
L 263.454545 232.843218 
L 263.618182 233.576845 
L 263.781818 236.953593 
L 264.109091 233.893027 
L 264.436364 235.457408 
L 264.6 235.333415 
L 264.927273 236.490685 
L 265.090909 237.01559 
L 265.254545 236.614678 
L 265.581818 237.300774 
L 265.745455 238.590303 
L 265.909091 242.378296 
L 266.072727 239.030479 
L 266.236364 241.880256 
L 266.4 239.631846 
L 266.563636 241.630204 
L 266.727273 239.75584 
L 266.890909 240.29521 
L 267.054545 242.632482 
L 267.218182 241.99805 
L 267.381818 242.155108 
L 267.545455 248.62962 
L 267.872727 242.686212 
L 268.036364 242.913533 
L 268.2 245.203274 
L 268.363636 241.702533 
L 268.527273 247.335958 
L 268.690909 243.023061 
L 268.854545 245.019351 
L 269.018182 245.22394 
L 269.181818 244.947022 
L 269.345455 246.37501 
L 269.509091 249.569902 
L 269.836364 246.20142 
L 270 249.97908 
L 270.163636 247.110703 
L 270.327273 254.688755 
L 270.490909 252.231623 
L 270.654545 247.11897 
L 270.818182 249.811689 
L 270.981818 254.358106 
L 271.145455 248.022053 
L 271.309091 249.41491 
L 271.472727 263.118226 
L 271.636364 257.532332 
L 271.963636 264.535882 
L 272.127273 249.917083 
L 272.290909 264.581346 
L 272.454545 263.647264 
L 272.618182 267.879566 
L 272.781818 265.697285 
L 272.945455 271.186051 
L 273.109091 271.644826 
L 273.272727 271.394773 
L 273.436364 263.845653 
L 273.6 284.976162 
L 273.763636 268.390004 
L 273.927273 281.510552 
L 274.090909 282.064389 
L 274.254545 269.154629 
L 274.418182 297.92932 
L 274.581818 281.896998 
L 274.745455 310.272843 
L 274.909091 304.120714 
L 275.236364 323.449188 
L 275.4 347.434848 
L 275.563636 320.266696 
L 275.727273 340.81237 
L 276.054545 326.487022 
L 276.218182 347.02257 
L 276.381818 337.848933 
L 276.545455 341.688589 
L 276.709091 334.668507 
L 276.872727 352.967011 
L 277.036364 332.110114 
L 277.2 343.553447 
L 277.363636 342.234159 
L 277.527273 349.211257 
L 277.690909 304.895671 
L 278.018182 332.876805 
L 278.181818 354.910811 
L 278.345455 360.11212 
L 278.672727 306.402189 
L 278.836364 323.025545 
L 279 304.310837 
L 279.327273 324.972238 
L 279.490909 318.782911 
L 279.654545 301.678047 
L 279.818182 340.766906 
L 280.145455 332.000586 
L 280.309091 351.454087 
L 280.472727 309.654944 
L 280.636364 319.995977 
L 280.8 339.103331 
L 281.127273 314.267491 
L 281.290909 316.135656 
L 281.454545 334.980557 
L 281.618182 301.378397 
L 281.781818 307.71445 
L 281.945455 301.095279 
L 282.109091 301.653249 
L 282.272727 296.707986 
L 282.436364 306.610911 
L 282.6 294.633167 
L 282.763636 294.126861 
L 282.927273 270.915333 
L 283.090909 283.959418 
L 283.418182 289.231196 
L 283.581818 282.361972 
L 283.909091 279.793246 
L 284.072727 272.802096 
L 284.236364 274.829385 
L 284.4 273.548122 
L 284.563636 273.234006 
L 284.727273 296.64599 
L 284.890909 274.019296 
L 285.054545 269.25589 
L 285.218182 270.096977 
L 285.381818 292.103705 
L 285.545455 267.877499 
L 285.709091 276.271839 
L 285.872727 273.438594 
L 286.036364 299.311844 
L 286.2 276.683083 
L 286.527273 282.769083 
L 286.690909 269.109165 
L 286.854545 273.291869 
L 287.018182 296.964239 
L 287.345455 271.98994 
L 287.509091 275.060839 
L 287.672727 269.826259 
L 287.836364 273.548122 
L 288 270.694211 
L 288.327273 278.057341 
L 288.490909 269.090566 
L 288.818182 291.115893 
L 288.981818 274.748789 
L 289.145455 276.926937 
L 289.309091 276.910404 
L 289.472727 277.534503 
L 289.636364 291.578801 
L 289.963636 268.377605 
L 290.127273 278.354925 
L 290.290909 277.66263 
L 290.454545 281.446489 
L 290.618182 273.760977 
L 290.781818 279.853176 
L 290.945455 279.330338 
L 291.109091 270.584684 
L 291.272727 277.53037 
L 291.436364 278.75377 
L 291.6 271.194317 
L 291.763636 273.368332 
L 291.927273 272.572709 
L 292.090909 275.058772 
L 292.418182 271.392706 
L 292.745455 275.552679 
L 292.909091 274.750856 
L 293.236364 270.807872 
L 293.4 277.701894 
L 293.563636 271.121988 
L 293.727273 270.989729 
L 293.890909 272.394985 
L 294.054545 270.041181 
L 294.218182 271.161253 
L 294.381818 273.570854 
L 294.545455 270.400761 
L 294.709091 271.400973 
L 294.872727 270.603283 
L 295.036364 271.710956 
L 295.2 270.812005 
L 295.527273 272.223461 
L 295.854545 271.87628 
L 296.181818 273.281536 
L 296.345455 273.02735 
L 296.509091 272.448715 
L 296.672727 272.835161 
L 297 272.390852 
L 297.163636 272.899224 
L 297.490909 274.093692 
L 297.818182 275.519614 
L 297.981818 274.13089 
L 298.309091 277.143925 
L 298.472727 275.244762 
L 298.636364 278.718639 
L 298.8 277.960213 
L 299.127273 284.920365 
L 299.290909 284.025548 
L 299.454545 289.671372 
L 299.618182 284.912099 
L 299.781818 286.957987 
L 299.945455 286.383485 
L 300.109091 289.863561 
L 300.272727 314.288157 
L 300.436364 286.532277 
L 300.6 282.450834 
L 300.763636 282.343373 
L 300.927273 282.839346 
L 301.090909 282.860012 
L 301.418182 280.729395 
L 301.581818 280.117695 
L 301.745455 278.619444 
L 302.072727 279.712651 
L 302.236364 281.43409 
L 302.4 289.40892 
L 302.727273 279.958571 
L 303.054545 278.697973 
L 303.545455 282.178049 
L 303.872727 280.504141 
L 304.036364 284.757108 
L 304.2 281.533284 
L 304.363636 283.180327 
L 304.527273 282.990205 
L 304.854545 289.640374 
L 305.181818 282.316508 
L 305.345455 293.211378 
L 305.509091 291.407277 
L 305.672727 285.598195 
L 306 303.556545 
L 306.163636 287.160509 
L 306.327273 287.015851 
L 306.490909 302.496403 
L 306.818182 287.079914 
L 306.981818 303.434618 
L 307.145455 297.020036 
L 307.309091 297.073766 
L 307.8 306.453853 
L 307.963636 298.877868 
L 308.127273 301.242005 
L 308.290909 297.077899 
L 308.454545 309.851266 
L 308.618182 311.79176 
L 308.781818 303.897526 
L 308.945455 303.196964 
L 309.109091 316.91268 
L 309.272727 311.033335 
L 309.436364 299.229182 
L 309.763636 310.285243 
L 309.927273 316.563432 
L 310.090909 327.842681 
L 310.254545 317.602908 
L 310.418182 334.344058 
L 310.581818 334.147736 
L 310.745455 322.783758 
L 310.909091 329.485591 
L 311.072727 317.20613 
L 311.4 330.41554 
L 311.563636 327.731087 
L 311.727273 327.97494 
L 311.890909 329.663314 
L 312.054545 329.243804 
L 312.218182 327.73522 
L 312.545455 348.084985 
L 312.709091 341.432336 
L 312.872727 351.562788 
L 313.036364 351.176549 
L 313.2 362.226783 
L 313.363636 359.947209 
L 313.527273 359.973867 
L 313.690909 362.249577 
L 314.018182 363.155343 
L 314.345455 363.173825 
L 316.309091 363.17355 
L 317.945455 363.149989 
L 318.109091 362.952577 
L 318.272727 363.164103 
L 321.218182 363.164708 
L 321.381818 362.91976 
L 321.872727 363.174543 
L 322.2 362.697006 
L 322.527273 363.174472 
L 322.690909 362.764107 
L 322.854545 363.139503 
L 323.018182 362.843422 
L 323.345455 363.080864 
L 323.672727 362.644474 
L 323.836364 358.485536 
L 324 363.101474 
L 324.163636 363.137649 
L 324.327273 356.03233 
L 324.490909 360.812268 
L 324.654545 360.450415 
L 324.818182 362.743648 
L 324.981818 361.512272 
L 325.145455 361.332895 
L 325.309091 353.870302 
L 325.472727 361.321343 
L 325.963636 357.588238 
L 326.127273 353.217891 
L 326.290909 362.257822 
L 326.618182 350.79341 
L 326.781818 353.091418 
L 326.945455 362.667744 
L 327.109091 355.968474 
L 327.272727 358.958156 
L 327.436364 358.866401 
L 327.6 355.460928 
L 327.763636 357.163975 
L 327.927273 360.506005 
L 328.090909 352.909561 
L 328.418182 356.776703 
L 328.581818 355.868039 
L 328.745455 354.108989 
L 328.909091 350.745673 
L 329.072727 353.1654 
L 329.236364 358.526453 
L 329.4 355.886845 
L 329.563636 339.917553 
L 329.727273 342.638377 
L 329.890909 357.657054 
L 330.054545 360.90547 
L 330.545455 335.515794 
L 330.709091 349.864081 
L 331.363636 330.399008 
L 331.527273 345.98888 
L 331.690909 345.012434 
L 331.854545 336.912784 
L 332.018182 354.473115 
L 332.181818 332.651551 
L 332.509091 350.052344 
L 332.672727 355.915156 
L 333 344.091164 
L 333.327273 359.579982 
L 333.818182 343.590852 
L 333.981818 326.071645 
L 334.145455 349.331324 
L 334.309091 349.139341 
L 334.472727 350.398079 
L 334.636364 339.037201 
L 334.8 350.968861 
L 334.963636 339.985749 
L 335.127273 351.40201 
L 335.290909 333.304582 
L 335.618182 338.028723 
L 335.781818 338.359371 
L 335.945455 350.9732 
L 336.109091 344.233756 
L 336.272727 325.0611 
L 336.436364 328.057602 
L 336.6 323.451255 
L 336.763636 330.138622 
L 337.090909 322.269186 
L 337.418182 329.314067 
L 337.581818 317.301192 
L 337.745455 325.073499 
L 338.236364 309.894664 
L 338.727273 330.965243 
L 338.890909 326.214237 
L 339.054545 311.456978 
L 339.218182 311.967417 
L 339.381818 314.391484 
L 339.545455 325.627336 
L 339.709091 308.888253 
L 340.036364 310.859745 
L 340.363636 317.855028 
L 340.527273 309.8492 
L 340.854545 313.13502 
L 341.018182 312.566718 
L 341.181818 314.116633 
L 341.509091 307.983102 
L 341.672727 310.235645 
L 341.836364 306.980824 
L 342 307.908706 
L 342.163636 311.221391 
L 342.327273 309.491686 
L 342.490909 310.543562 
L 342.654545 307.125482 
L 342.818182 308.493541 
L 342.981818 311.946752 
L 343.309091 307.297006 
L 343.472727 307.547059 
L 343.636364 309.192036 
L 343.8 309.601213 
L 343.963636 308.040966 
L 344.290909 308.561737 
L 344.454545 308.371614 
L 344.618182 309.987659 
L 344.781818 309.152771 
L 344.945455 309.103174 
L 345.109091 308.536938 
L 345.272727 308.528672 
L 345.436364 307.538793 
L 345.763636 308.334416 
L 345.927273 309.60948 
L 346.090909 308.270353 
L 346.254545 308.977114 
L 346.745455 308.687797 
L 346.909091 310.008325 
L 347.072727 309.433823 
L 347.236364 310.33484 
L 347.4 308.822123 
L 347.563636 309.251966 
L 347.727273 309.332562 
L 347.890909 309.814068 
L 348.054545 308.944049 
L 348.545455 310.425768 
L 348.709091 309.495819 
L 348.872727 310.465033 
L 349.036364 310.34104 
L 349.527273 314.616739 
L 349.690909 315.953799 
L 349.854545 315.420628 
L 350.018182 316.160454 
L 350.181818 314.684935 
L 350.345455 315.036249 
L 350.509091 313.618593 
L 350.672727 319.789322 
L 350.836364 315.945533 
L 351 315.633483 
L 351.327273 313.236281 
L 351.490909 314.594007 
L 351.654545 313.471868 
L 351.818182 313.176351 
L 351.981818 311.231724 
L 352.472727 312.77544 
L 352.636364 316.538633 
L 352.8 314.639471 
L 352.963636 314.604339 
L 353.290909 311.320586 
L 353.454545 311.73803 
L 353.618182 311.339185 
L 353.781818 314.091834 
L 353.945455 313.608261 
L 354.109091 312.145141 
L 354.6 318.348934 
L 354.763636 318.165011 
L 354.927273 318.196009 
L 355.090909 317.303258 
L 355.418182 314.707667 
L 355.745455 317.001541 
L 355.909091 317.528513 
L 356.072727 319.475206 
L 356.4 316.838284 
L 356.563636 315.546688 
L 356.727273 315.309034 
L 356.890909 314.775863 
L 357.054545 316.894081 
L 357.218182 316.06126 
L 357.381818 314.279891 
L 357.545455 314.786196 
L 357.709091 316.092258 
L 357.872727 316.129456 
L 358.363636 314.441082 
L 358.527273 315.418561 
L 358.854545 314.821328 
L 359.181818 314.701467 
L 359.345455 315.676881 
L 359.509091 315.362765 
L 359.672727 315.331766 
L 359.836364 316.441505 
L 360 316.412574 
L 360.163636 316.238983 
L 360.327273 315.893869 
L 360.654545 318.964767 
L 360.818182 318.929636 
L 360.981818 319.956713 
L 361.145455 319.057762 
L 361.309091 318.811842 
L 361.472727 319.902982 
L 361.636364 318.262139 
L 361.8 319.330547 
L 361.963636 319.473139 
L 362.127273 317.431385 
L 362.290909 319.659129 
L 362.454545 319.237552 
L 362.618182 317.912892 
L 362.781818 321.262775 
L 362.945455 318.218741 
L 363.109091 318.410931 
L 363.272727 319.795522 
L 363.436364 318.497726 
L 363.6 318.756045 
L 363.763636 318.510125 
L 363.927273 317.979021 
L 364.090909 318.714714 
L 364.254545 318.286938 
L 364.418182 318.17741 
L 364.581818 319.130091 
L 364.745455 318.474994 
L 364.909091 318.747779 
L 365.072727 320.589078 
L 365.236364 327.193783 
L 365.4 320.806066 
L 365.563636 320.022843 
L 365.727273 319.902982 
L 365.890909 318.592788 
L 366.054545 319.169356 
L 366.218182 320.640742 
L 366.381818 319.669462 
L 366.545455 319.77279 
L 366.872727 320.636609 
L 367.036364 320.463018 
L 367.2 321.089184 
L 367.363636 320.31216 
L 367.690909 324.042289 
L 368.018182 321.105717 
L 368.181818 323.325195 
L 368.345455 320.266696 
L 368.509091 320.859797 
L 368.672727 321.944737 
L 368.836364 320.882529 
L 369.163636 321.862075 
L 369.327273 324.306808 
L 369.490909 321.483896 
L 369.654545 320.630409 
L 369.818182 321.946804 
L 369.981818 320.961058 
L 370.145455 321.051986 
L 370.309091 326.701943 
L 370.472727 321.4157 
L 370.636364 321.793879 
L 370.8 322.951149 
L 371.127273 322.103862 
L 372.436364 325.323552 
L 373.254545 324.963972 
L 374.072727 325.499209 
L 374.890909 327.284711 
L 375.709091 328.086534 
L 376.527273 330.609796 
L 377.345455 329.272736 
L 378.163636 331.959255 
L 378.981818 329.774908 
L 379.8 332.318836 
L 380.618182 330.919779 
L 381.436364 336.377547 
L 382.254545 334.592045 
L 383.072727 340.002281 
L 383.890909 342.89277 
L 384.709091 347.633857 
L 385.527273 345.230455 
L 386.345455 353.696505 
L 387.981818 360.181143 
L 388.8 361.216238 
L 389.618182 362.511326 
L 390.436364 362.974962 
L 391.254545 362.916991 
L 392.072727 363.173494 
L 406.8 363.082685 
L 407.618182 362.983749 
L 408.436364 363.061972 
L 409.254545 362.442407 
L 410.072727 362.505871 
L 410.890909 360.961887 
L 411.709091 359.768452 
L 412.527273 361.131551 
L 413.345455 358.717196 
L 414.163636 357.364637 
L 415.8 349.384434 
L 417.436364 346.306303 
L 418.254545 345.789871 
L 419.072727 346.686135 
L 419.890909 355.42683 
L 420.709091 360.126999 
L 421.527273 355.100314 
L 422.345455 357.758522 
L 423.163636 354.03232 
L 423.981818 348.134376 
L 425.618182 343.581965 
L 426.436364 344.917786 
L 427.254545 344.650787 
L 428.072727 349.350956 
L 428.890909 351.996558 
L 429.709091 349.089537 
L 430.527273 350.576422 
L 431.345455 349.800845 
L 432.163636 347.405709 
L 432.981818 345.499727 
L 433.8 345.847115 
L 434.618182 345.034546 
L 435.436364 344.901873 
L 436.254545 345.635913 
L 437.072727 344.209578 
L 437.890909 344.922745 
L 438.709091 344.511914 
L 439.527273 345.344116 
L 441.163636 344.901666 
L 442.8 344.701624 
L 443.618182 344.961596 
L 444.436364 345.945896 
L 445.254545 345.905185 
L 446.072727 346.040337 
L 446.890909 347.63923 
L 447.709091 346.481753 
L 448.527273 346.795663 
L 449.345455 346.518745 
L 450.163636 347.994057 
L 450.981818 347.075061 
L 451.8 347.08994 
L 452.618182 348.672507 
L 453.436364 348.099658 
L 454.254545 347.01947 
L 455.072727 347.636337 
L 455.890909 347.33834 
L 456.709091 347.799388 
L 457.527273 347.731811 
L 459.981818 348.727064 
L 460.8 348.49499 
L 461.618182 349.356536 
L 462.436364 349.505741 
L 463.254545 349.255275 
L 464.072727 349.920085 
L 464.890909 350.091402 
L 465.709091 349.628081 
L 466.527273 350.281525 
L 467.345455 350.25156 
L 468.981818 351.148651 
L 469.8 351.076115 
L 470.618182 350.116201 
L 472.254545 352.534068 
L 473.072727 351.679135 
L 474.709091 351.320381 
L 475.527273 353.799419 
L 476.345455 352.662195 
L 477.163636 354.677911 
L 477.981818 353.464224 
L 478.8 352.898815 
L 479.618182 353.067239 
L 480.436364 356.868664 
L 481.254545 354.14288 
L 482.072727 354.468569 
L 482.890909 356.866391 
L 483.709091 355.580375 
L 485.345455 354.138334 
L 486.163636 356.295816 
L 486.981818 356.250765 
L 487.8 357.582865 
L 488.618182 357.727524 
L 489.436364 356.395837 
L 490.254545 353.931885 
L 491.072727 360.123279 
L 491.890909 354.303658 
L 492.709091 358.905666 
L 493.527273 360.379945 
L 494.345455 358.071192 
L 495.163636 356.322474 
L 495.981818 358.212957 
L 496.8 359.736834 
L 497.618182 359.792011 
L 498.436364 361.521385 
L 500.072727 362.45214 
L 500.890909 362.58254 
L 501.709091 361.72118 
L 502.527273 362.862 
L 503.345455 362.718602 
L 504.163636 363.06782 
L 509.890909 363.174545 
L 565.527273 363.13557 
L 566.345455 362.616948 
L 567.163636 363.00471 
L 567.981818 363.151324 
L 568.8 362.604879 
L 569.618182 362.911225 
L 570.436364 362.568715 
L 571.254545 362.947783 
L 572.072727 361.942756 
L 572.890909 361.816303 
L 573.709091 362.833998 
L 574.527273 362.87132 
L 575.345455 362.080615 
L 576.163636 362.685702 
L 577.8 361.618162 
L 578.618182 363.100819 
L 580.254545 362.894569 
L 581.072727 361.717729 
L 581.890909 361.023883 
L 582.709091 362.280017 
L 583.527273 361.532834 
L 584.345455 362.569851 
L 585.163636 361.742011 
L 585.981818 362.012481 
L 586.8 363.041991 
L 587.618182 361.605039 
L 588.436364 361.903801 
L 589.254545 362.651914 
L 590.072727 362.751171 
L 590.890909 362.294214 
L 591.709091 362.958673 
L 592.527273 363.114006 
L 593.345455 361.85689 
L 594.163636 362.56578 
L 594.981818 362.808786 
L 595.8 361.915436 
L 597.436364 362.805128 
L 598.254545 362.676919 
L 599.072727 363.037603 
L 599.890909 362.254661 
L 600.709091 362.981936 
L 601.527273 362.997806 
L 602.345455 362.700643 
L 603.163636 361.122582 
L 603.981818 362.541663 
L 604.8 361.970861 
L 605.618182 360.783336 
L 606.436364 362.480121 
L 607.254545 362.49529 
L 608.072727 361.78051 
L 608.890909 361.997333 
L 609.709091 361.246575 
L 610.527273 360.247686 
L 611.345455 360.561389 
L 612.163636 361.247443 
L 612.981818 360.957134 
L 613.8 361.487329 
L 614.618182 362.289709 
L 615.436364 362.612505 
L 616.254545 363.083038 
L 618.709091 363.070728 
L 619.527273 362.838834 
L 620.345455 363.133078 
L 621.163636 363.103448 
L 621.981818 361.653045 
L 623.618182 363.021422 
L 624.436364 362.630877 
L 625.254545 361.101999 
L 626.072727 362.919119 
L 626.890909 362.664396 
L 627.709091 362.920525 
L 628.527273 361.939614 
L 629.345455 362.577518 
L 630.163636 360.855253 
L 630.981818 361.349572 
L 631.8 362.919595 
L 632.618182 362.803723 
L 633.436364 362.353173 
L 634.254545 362.356914 
L 635.072727 363.171183 
L 635.890909 363.162044 
L 636.709091 362.441208 
L 637.527273 362.202976 
L 638.345455 361.284269 
L 639.163636 362.453256 
L 639.981818 362.436331 
L 640.8 361.500678 
L 641.618182 362.417319 
L 643.254545 361.674414 
L 644.072727 362.352677 
L 644.890909 361.409957 
L 645.709091 362.107708 
L 647.345455 361.11725 
L 648.163636 361.181437 
L 648.981818 360.562835 
L 649.8 362.243336 
L 650.618182 361.695988 
L 651.436364 361.65474 
L 652.254545 360.424996 
L 653.072727 361.084847 
L 653.890909 361.359905 
L 654.709091 360.762258 
L 655.527273 361.496897 
L 656.345455 360.811648 
L 657.163636 360.84616 
L 657.981818 361.439922 
L 658.8 360.558909 
L 659.618182 361.125289 
L 660.436364 360.614912 
L 661.254545 360.890797 
L 662.072727 360.832107 
L 662.890909 360.65087 
L 663.709091 361.000531 
L 664.527273 360.615532 
L 666.163636 360.710594 
L 666.981818 360.678769 
L 667.8 360.777757 
L 668.618182 360.647977 
L 670.254545 360.856492 
L 671.072727 361.205017 
L 671.890909 361.293754 
L 673.527273 360.980692 
L 674.345455 361.288919 
L 675.163636 360.927789 
L 675.981818 360.916216 
L 676.8 361.439653 
L 677.618182 361.376065 
L 678.436364 361.055295 
L 679.254545 361.267489 
L 682.527273 361.020163 
L 683.345455 361.203363 
L 684.163636 361.204748 
L 684.981818 360.759571 
L 685.8 361.045582 
L 686.618182 361.104686 
L 687.436364 361.033183 
L 688.254545 360.787883 
L 689.890909 361.070174 
L 690.709091 360.892657 
L 691.527273 360.905883 
L 692.345455 361.043309 
L 693.163636 361.532379 
L 693.981818 362.170841 
L 694.8 361.443001 
L 695.618182 361.213262 
L 697.254545 361.069141 
L 698.072727 360.914356 
L 698.890909 360.937088 
L 699.709091 361.229299 
L 700.527273 361.25821 
L 701.345455 361.019337 
L 702.163636 360.952794 
L 702.981818 361.249158 
L 703.8 361.391936 
L 704.618182 361.336904 
L 705.436364 361.029463 
L 706.254545 361.245604 
L 708.709091 361.399562 
L 709.527273 361.28057 
L 710.345455 361.295676 
L 711.163636 361.187389 
L 712.8 361.564886 
L 714.436364 361.128906 
L 716.890909 361.565382 
L 717.709091 361.17189 
L 719.345455 361.185116 
L 720.163636 361.579373 
L 720.981818 361.313283 
L 725.890909 361.648623 
L 727.527273 361.820064 
L 731.618182 361.531635 
L 732.436364 361.69572 
L 735.709091 361.713513 
L 738.163636 361.611962 
L 742.254545 361.583361 
L 747.163636 361.70318 
L 747.163636 361.70318 
" style="fill:none;stroke:#000000;stroke-linecap:round;"/>
   </g>
   <g id="patch_3">
    <path d="M 108 378 
L 108 51.84 
" style="fill:none;"/>
   </g>
   <g id="patch_4">
    <path d="M 777.6 378 
L 777.6 51.84 
" style="fill:none;"/>
   </g>
   <g id="patch_5">
    <path d="M 108 378 
L 777.6 378 
" style="fill:none;"/>
   </g>
   <g id="patch_6">
    <path d="M 108 51.84 
L 777.6 51.84 
" style="fill:none;"/>
   </g>
   <g id="legend_1">
    <g id="line2d_34">
     <path d="M 694.465625 64.586875 
L 714.465625 64.586875 
" style="fill:none;stroke:#000000;stroke-linecap:round;"/>
    </g>
    <g id="line2d_35"/>
    <g id="text_19">
     <!-- continuum -->
     <defs>
      <path d="M 51.421875 26.46875 
Q 51.421875 12.59375 45.3125 5.796875 
Q 39.203125 -0.984375 27.59375 -0.984375 
Q 22.078125 -0.984375 17.71875 0.671875 
Q 13.375 2.34375 10.375 5.765625 
Q 7.375 9.1875 5.78125 14.328125 
Q 4.203125 19.484375 4.203125 26.46875 
Q 4.203125 53.8125 27.875 53.8125 
Q 34.03125 53.8125 38.5 52.09375 
Q 42.96875 50.390625 45.828125 46.96875 
Q 48.6875 43.5625 50.046875 38.421875 
Q 51.421875 33.296875 51.421875 26.46875 
z
M 42.1875 26.46875 
Q 42.1875 32.625 41.234375 36.625 
Q 40.28125 40.625 38.453125 43.015625 
Q 36.625 45.40625 33.984375 46.359375 
Q 31.34375 47.3125 28.03125 47.3125 
Q 24.65625 47.3125 21.9375 46.3125 
Q 19.234375 45.3125 17.328125 42.890625 
Q 15.4375 40.484375 14.421875 36.46875 
Q 13.421875 32.46875 13.421875 26.46875 
Q 13.421875 20.3125 14.5 16.28125 
Q 15.578125 12.25 17.453125 9.859375 
Q 19.34375 7.46875 21.90625 6.484375 
Q 24.46875 5.515625 27.484375 5.515625 
Q 30.859375 5.515625 33.59375 6.46875 
Q 36.328125 7.421875 38.234375 9.8125 
Q 40.140625 12.203125 41.15625 16.25 
Q 42.1875 20.3125 42.1875 26.46875 
z
" id="LiberationSans-111"/>
      <path d="M 15.328125 52.828125 
L 15.328125 19.34375 
Q 15.328125 15.484375 15.890625 12.890625 
Q 16.453125 10.296875 17.71875 8.703125 
Q 19 7.125 21.0625 6.46875 
Q 23.140625 5.8125 26.21875 5.8125 
Q 29.34375 5.8125 31.859375 6.90625 
Q 34.375 8.015625 36.15625 10.078125 
Q 37.9375 12.15625 38.90625 15.203125 
Q 39.890625 18.265625 39.890625 22.21875 
L 39.890625 52.828125 
L 48.6875 52.828125 
L 48.6875 11.28125 
Q 48.6875 9.625 48.703125 7.78125 
Q 48.734375 5.953125 48.78125 4.3125 
Q 48.828125 2.6875 48.875 1.515625 
Q 48.921875 0.34375 48.96875 0 
L 40.671875 0 
Q 40.625 0.25 40.578125 1.3125 
Q 40.53125 2.390625 40.453125 3.78125 
Q 40.375 5.171875 40.328125 6.609375 
Q 40.28125 8.0625 40.28125 9.03125 
L 40.140625 9.03125 
Q 38.875 6.734375 37.359375 4.875 
Q 35.84375 3.03125 33.84375 1.734375 
Q 31.84375 0.4375 29.25 -0.265625 
Q 26.65625 -0.984375 23.25 -0.984375 
Q 18.84375 -0.984375 15.671875 0.09375 
Q 12.5 1.171875 10.453125 3.421875 
Q 8.40625 5.671875 7.453125 9.1875 
Q 6.5 12.703125 6.5 17.625 
L 6.5 52.828125 
z
" id="LiberationSans-117"/>
     </defs>
     <g style="fill:#262626;" transform="translate(722.465625 68.086875)scale(0.1 -0.1)">
      <use xlink:href="#LiberationSans-99"/>
      <use x="50" xlink:href="#LiberationSans-111"/>
      <use x="105.615234" xlink:href="#LiberationSans-110"/>
      <use x="161.230469" xlink:href="#LiberationSans-116"/>
      <use x="189.013672" xlink:href="#LiberationSans-105"/>
      <use x="211.230469" xlink:href="#LiberationSans-110"/>
      <use x="266.845703" xlink:href="#LiberationSans-117"/>
      <use x="322.460938" xlink:href="#LiberationSans-117"/>
      <use x="378.076172" xlink:href="#LiberationSans-109"/>
     </g>
    </g>
   </g>
  </g>
 </g>
 <defs>
  <clipPath id="pbaabe3d3f0">
   <rect height="326.16" width="669.6" x="108" y="51.84"/>
  </clipPath>
 </defs>
</svg>
